  0
SECTION
  2
HEADER
  9
$ACADVER
  1
AC1024
  9
$ACADMAINTVER
 70
6
  9
$DWGCODEPAGE
  3
ANSI_1252
  9
$LASTSAVEDBY
  1
ezdxf
  9
$INSBASE
 10
0.0
 20
0.0
 30
0.0
  9
$EXTMIN
 10
1e+20
 20
1e+20
 30
1e+20
  9
$EXTMAX
 10
-1e+20
 20
-1e+20
 30
-1e+20
  9
$LIMMIN
 10
0.0
 20
0.0
  9
$LIMMAX
 10
420.0
 20
297.0
  9
$ORTHOMODE
 70
0
  9
$REGENMODE
 70
1
  9
$FILLMODE
 70
1
  9
$QTEXTMODE
 70
0
  9
$MIRRTEXT
 70
1
  9
$LTSCALE
 40
1.0
  9
$ATTMODE
 70
1
  9
$TEXTSIZE
 40
2.5
  9
$TRACEWID
 40
1.0
  9
$TEXTSTYLE
  7
Standard
  9
$CLAYER
  8
0
  9
$CELTYPE
  6
ByLayer
  9
$CECOLOR
 62
256
  9
$CELTSCALE
 40
1.0
  9
$DISPSILH
 70
0
  9
$DIMSCALE
 40
1.0
  9
$DIMASZ
 40
2.5
  9
$DIMEXO
 40
0.625
  9
$DIMDLI
 40
3.75
  9
$DIMRND
 40
0.0
  9
$DIMDLE
 40
0.0
  9
$DIMEXE
 40
1.25
  9
$DIMTP
 40
0.0
  9
$DIMTM
 40
0.0
  9
$DIMTXT
 40
2.5
  9
$DIMCEN
 40
2.5
  9
$DIMTSZ
 40
0.0
  9
$DIMTOL
 70
0
  9
$DIMLIM
 70
0
  9
$DIMTIH
 70
0
  9
$DIMTOH
 70
0
  9
$DIMSE1
 70
0
  9
$DIMSE2
 70
0
  9
$DIMTAD
 70
1
  9
$DIMZIN
 70
8
  9
$DIMBLK
  1

  9
$DIMASO
 70
1
  9
$DIMSHO
 70
1
  9
$DIMPOST
  1

  9
$DIMAPOST
  1

  9
$DIMALT
 70
0
  9
$DIMALTD
 70
3
  9
$DIMALTF
 40
0.03937007874
  9
$DIMLFAC
 40
1.0
  9
$DIMTOFL
 70
1
  9
$DIMTVP
 40
0.0
  9
$DIMTIX
 70
0
  9
$DIMSOXD
 70
0
  9
$DIMSAH
 70
0
  9
$DIMBLK1
  1

  9
$DIMBLK2
  1

  9
$DIMSTYLE
  2
ISO-25
  9
$DIMCLRD
 70
0
  9
$DIMCLRE
 70
0
  9
$DIMCLRT
 70
0
  9
$DIMTFAC
 40
1.0
  9
$DIMGAP
 40
0.625
  9
$DIMJUST
 70
0
  9
$DIMSD1
 70
0
  9
$DIMSD2
 70
0
  9
$DIMTOLJ
 70
0
  9
$DIMTZIN
 70
8
  9
$DIMALTZ
 70
0
  9
$DIMALTTZ
 70
0
  9
$DIMUPT
 70
0
  9
$DIMDEC
 70
2
  9
$DIMTDEC
 70
2
  9
$DIMALTU
 70
2
  9
$DIMALTTD
 70
3
  9
$DIMTXSTY
  7
Standard
  9
$DIMAUNIT
 70
0
  9
$DIMADEC
 70
0
  9
$DIMALTRND
 40
0.0
  9
$DIMAZIN
 70
0
  9
$DIMDSEP
 70
44
  9
$DIMATFIT
 70
3
  9
$DIMFRAC
 70
0
  9
$DIMLDRBLK
  1

  9
$DIMLUNIT
 70
2
  9
$DIMLWD
 70
-2
  9
$DIMLWE
 70
-2
  9
$DIMTMOVE
 70
0
  9
$DIMFXL
 40
1.0
  9
$DIMFXLON
 70
0
  9
$DIMJOGANG
 40
0.785398163397
  9
$DIMTFILL
 70
0
  9
$DIMTFILLCLR
 70
0
  9
$DIMARCSYM
 70
0
  9
$DIMLTYPE
  6

  9
$DIMLTEX1
  6

  9
$DIMLTEX2
  6

  9
$DIMTXTDIRECTION
 70
0
  9
$LUNITS
 70
2
  9
$LUPREC
 70
4
  9
$SKETCHINC
 40
1.0
  9
$FILLETRAD
 40
10.0
  9
$AUNITS
 70
0
  9
$AUPREC
 70
2
  9
$MENU
  1
.
  9
$ELEVATION
 40
0.0
  9
$PELEVATION
 40
0.0
  9
$THICKNESS
 40
0.0
  9
$LIMCHECK
 70
0
  9
$CHAMFERA
 40
0.0
  9
$CHAMFERB
 40
0.0
  9
$CHAMFERC
 40
0.0
  9
$CHAMFERD
 40
0.0
  9
$SKPOLY
 70
0
  9
$TDCREATE
 40
2460997.888159722
  9
$TDUCREATE
 40
2458532.153996898
  9
$TDUPDATE
 40
2460997.888159722
  9
$TDUUPDATE
 40
2458532.1544311
  9
$TDINDWG
 40
0.0
  9
$TDUSRTIMER
 40
0.0
  9
$USRTIMER
 70
1
  9
$ANGBASE
 50
0.0
  9
$ANGDIR
 70
0
  9
$PDMODE
 70
0
  9
$PDSIZE
 40
0.0
  9
$PLINEWID
 40
0.0
  9
$SPLFRAME
 70
0
  9
$SPLINETYPE
 70
6
  9
$SPLINESEGS
 70
8
  9
$HANDSEED
  5
44
  9
$SURFTAB1
 70
6
  9
$SURFTAB2
 70
6
  9
$SURFTYPE
 70
6
  9
$SURFU
 70
6
  9
$SURFV
 70
6
  9
$UCSBASE
  2

  9
$UCSNAME
  2

  9
$UCSORG
 10
0.0
 20
0.0
 30
0.0
  9
$UCSXDIR
 10
1.0
 20
0.0
 30
0.0
  9
$UCSYDIR
 10
0.0
 20
1.0
 30
0.0
  9
$UCSORTHOREF
  2

  9
$UCSORTHOVIEW
 70
0
  9
$UCSORGTOP
 10
0.0
 20
0.0
 30
0.0
  9
$UCSORGBOTTOM
 10
0.0
 20
0.0
 30
0.0
  9
$UCSORGLEFT
 10
0.0
 20
0.0
 30
0.0
  9
$UCSORGRIGHT
 10
0.0
 20
0.0
 30
0.0
  9
$UCSORGFRONT
 10
0.0
 20
0.0
 30
0.0
  9
$UCSORGBACK
 10
0.0
 20
0.0
 30
0.0
  9
$PUCSBASE
  2

  9
$PUCSNAME
  2

  9
$PUCSORG
 10
0.0
 20
0.0
 30
0.0
  9
$PUCSXDIR
 10
1.0
 20
0.0
 30
0.0
  9
$PUCSYDIR
 10
0.0
 20
1.0
 30
0.0
  9
$PUCSORTHOREF
  2

  9
$PUCSORTHOVIEW
 70
0
  9
$PUCSORGTOP
 10
0.0
 20
0.0
 30
0.0
  9
$PUCSORGBOTTOM
 10
0.0
 20
0.0
 30
0.0
  9
$PUCSORGLEFT
 10
0.0
 20
0.0
 30
0.0
  9
$PUCSORGRIGHT
 10
0.0
 20
0.0
 30
0.0
  9
$PUCSORGFRONT
 10
0.0
 20
0.0
 30
0.0
  9
$PUCSORGBACK
 10
0.0
 20
0.0
 30
0.0
  9
$USERI1
 70
0
  9
$USERI2
 70
0
  9
$USERI3
 70
0
  9
$USERI4
 70
0
  9
$USERI5
 70
0
  9
$USERR1
 40
0.0
  9
$USERR2
 40
0.0
  9
$USERR3
 40
0.0
  9
$USERR4
 40
0.0
  9
$USERR5
 40
0.0
  9
$WORLDVIEW
 70
1
  9
$SHADEDGE
 70
3
  9
$SHADEDIF
 70
70
  9
$TILEMODE
 70
1
  9
$MAXACTVP
 70
64
  9
$PINSBASE
 10
0.0
 20
0.0
 30
0.0
  9
$PLIMCHECK
 70
0
  9
$PEXTMIN
 10
1e+20
 20
1e+20
 30
1e+20
  9
$PEXTMAX
 10
-1e+20
 20
-1e+20
 30
-1e+20
  9
$PLIMMIN
 10
0.0
 20
0.0
  9
$PLIMMAX
 10
420.0
 20
297.0
  9
$UNITMODE
 70
0
  9
$VISRETAIN
 70
1
  9
$PLINEGEN
 70
0
  9
$PSLTSCALE
 70
1
  9
$TREEDEPTH
 70
3020
  9
$CMLSTYLE
  2
Standard
  9
$CMLJUST
 70
0
  9
$CMLSCALE
 40
20.0
  9
$PROXYGRAPHICS
 70
1
  9
$MEASUREMENT
 70
1
  9
$CELWEIGHT
370
-1
  9
$ENDCAPS
280
0
  9
$JOINSTYLE
280
0
  9
$LWDISPLAY
290
0
  9
$INSUNITS
 70
6
  9
$HYPERLINKBASE
  1

  9
$STYLESHEET
  1

  9
$XEDIT
290
1
  9
$CEPSNTYPE
380
0
  9
$PSTYLEMODE
290
1
  9
$FINGERPRINTGUID
  2
{BBA376CD-1176-46FC-ADC9-FBC86F764D8D}
  9
$VERSIONGUID
  2
{331E8689-AFA6-4707-AB46-940276CF8245}
  9
$EXTNAMES
290
1
  9
$PSVPSCALE
 40
0.0
  9
$OLESTARTUP
290
0
  9
$SORTENTS
280
127
  9
$INDEXCTL
280
0
  9
$HIDETEXT
280
1
  9
$XCLIPFRAME
280
1
  9
$HALOGAP
280
0
  9
$OBSCOLOR
 70
257
  9
$OBSLTYPE
280
0
  9
$INTERSECTIONDISPLAY
280
0
  9
$INTERSECTIONCOLOR
 70
257
  9
$DIMASSOC
280
2
  9
$PROJECTNAME
  1

  9
$CAMERADISPLAY
290
0
  9
$LENSLENGTH
 40
50.0
  9
$CAMERAHEIGHT
 40
0.0
  9
$STEPSPERSEC
 40
24.0
  9
$STEPSIZE
 40
100.0
  9
$3DDWFPREC
 40
2.0
  9
$PSOLWIDTH
 40
0.005
  9
$PSOLHEIGHT
 40
0.08
  9
$LOFTANG1
 40
1.570796326795
  9
$LOFTANG2
 40
1.570796326795
  9
$LOFTMAG1
 40
0.0
  9
$LOFTMAG2
 40
0.0
  9
$LOFTPARAM
 70
7
  9
$LOFTNORMALS
280
1
  9
$LATITUDE
 40
37.795
  9
$LONGITUDE
 40
-122.394
  9
$NORTHDIRECTION
 40
0.0
  9
$TIMEZONE
 70
-8000
  9
$LIGHTGLYPHDISPLAY
280
1
  9
$TILEMODELIGHTSYNCH
280
1
  9
$CMATERIAL
347
20
  9
$SOLIDHIST
280
0
  9
$SHOWHIST
280
1
  9
$DWFFRAME
280
2
  9
$DGNFRAME
280
2
  9
$REALWORLDSCALE
290
1
  9
$INTERFERECOLOR
 62
256
  9
$CSHADOW
280
0
  9
$SHADOWPLANELOCATION
 40
0.0
  0
ENDSEC
  0
SECTION
  2
CLASSES
  0
CLASS
  1
ACDBDICTIONARYWDFLT
  2
AcDbDictionaryWithDefault
  3
ObjectDBX Classes
 90
0
 91
0
280
0
281
0
  0
CLASS
  1
SUN
  2
AcDbSun
  3
SCENEOE
 90
1153
 91
0
280
0
281
0
  0
CLASS
  1
VISUALSTYLE
  2
AcDbVisualStyle
  3
ObjectDBX Classes
 90
4095
 91
0
280
0
281
0
  0
CLASS
  1
MATERIAL
  2
AcDbMaterial
  3
ObjectDBX Classes
 90
1153
 91
0
280
0
281
0
  0
CLASS
  1
SCALE
  2
AcDbScale
  3
ObjectDBX Classes
 90
1153
 91
0
280
0
281
0
  0
CLASS
  1
TABLESTYLE
  2
AcDbTableStyle
  3
ObjectDBX Classes
 90
4095
 91
0
280
0
281
0
  0
CLASS
  1
MLEADERSTYLE
  2
AcDbMLeaderStyle
  3
ACDB_MLEADERSTYLE_CLASS
 90
4095
 91
0
280
0
281
0
  0
CLASS
  1
DICTIONARYVAR
  2
AcDbDictionaryVar
  3
ObjectDBX Classes
 90
0
 91
0
280
0
281
0
  0
CLASS
  1
CELLSTYLEMAP
  2
AcDbCellStyleMap
  3
ObjectDBX Classes
 90
1152
 91
0
280
0
281
0
  0
CLASS
  1
MENTALRAYRENDERSETTINGS
  2
AcDbMentalRayRenderSettings
  3
SCENEOE
 90
1024
 91
0
280
0
281
0
  0
CLASS
  1
ACDBDETAILVIEWSTYLE
  2
AcDbDetailViewStyle
  3
ObjectDBX Classes
 90
1025
 91
0
280
0
281
0
  0
CLASS
  1
ACDBSECTIONVIEWSTYLE
  2
AcDbSectionViewStyle
  3
ObjectDBX Classes
 90
1025
 91
0
280
0
281
0
  0
CLASS
  1
RASTERVARIABLES
  2
AcDbRasterVariables
  3
ISM
 90
0
 91
0
280
0
281
0
  0
CLASS
  1
LAYOUT
  2
AcDbLayout
  3
ObjectDBX Classes
 90
0
 91
0
280
0
281
0
  0
CLASS
  1
ACDBPLACEHOLDER
  2
AcDbPlaceHolder
  3
ObjectDBX Classes
 90
0
 91
0
280
0
281
0
  0
ENDSEC
  0
SECTION
  2
TABLES
  0
TABLE
  2
VPORT
  5
8
330
0
100
AcDbSymbolTable
 70
1
  0
VPORT
  5
23
330
8
100
AcDbSymbolTableRecord
100
AcDbViewportTableRecord
  2
*Active
 70
0
 10
0.0
 20
0.0
 11
1.0
 21
1.0
 12
0.0
 22
0.0
 13
0.0
 23
0.0
 14
0.5
 24
0.5
 15
0.5
 25
0.5
 16
0.0
 26
0.0
 36
1.0
 17
0.0
 27
0.0
 37
0.0
 40
1000.0
 41
1.34
 42
50.0
 43
0.0
 44
0.0
 50
0.0
 51
0.0
 71
0
 72
1000
 73
1
 74
3
 75
0
 76
0
 77
0
 78
0
281
0
 65
0
146
0.0
  0
ENDTAB
  0
TABLE
  2
LTYPE
  5
2
330
0
100
AcDbSymbolTable
 70
3
  0
LTYPE
  5
24
330
2
100
AcDbSymbolTableRecord
100
AcDbLinetypeTableRecord
  2
ByBlock
 70
0
  3

 72
65
 73
0
 40
0.0
  0
LTYPE
  5
25
330
2
100
AcDbSymbolTableRecord
100
AcDbLinetypeTableRecord
  2
ByLayer
 70
0
  3

 72
65
 73
0
 40
0.0
  0
LTYPE
  5
26
330
2
100
AcDbSymbolTableRecord
100
AcDbLinetypeTableRecord
  2
Continuous
 70
0
  3

 72
65
 73
0
 40
0.0
  0
ENDTAB
  0
TABLE
  2
LAYER
  5
1
330
0
100
AcDbSymbolTable
 70
2
  0
LAYER
  5
27
330
1
100
AcDbSymbolTableRecord
100
AcDbLayerTableRecord
  2
0
 70
0
 62
7
  6
Continuous
370
-3
390
13
347
21
  0
LAYER
  5
28
330
1
100
AcDbSymbolTableRecord
100
AcDbLayerTableRecord
  2
Defpoints
 70
0
 62
7
  6
Continuous
290
0
370
-3
390
13
347
21
  0
ENDTAB
  0
TABLE
  2
STYLE
  5
5
330
0
100
AcDbSymbolTable
 70
1
  0
STYLE
  5
29
330
5
100
AcDbSymbolTableRecord
100
AcDbTextStyleTableRecord
  2
Standard
 70
0
 40
0.0
 41
1.0
 50
0.0
 71
0
 42
2.5
  3
txt
  4

  0
ENDTAB
  0
TABLE
  2
VIEW
  5
7
330
0
100
AcDbSymbolTable
 70
0
  0
ENDTAB
  0
TABLE
  2
UCS
  5
6
330
0
100
AcDbSymbolTable
 70
0
  0
ENDTAB
  0
TABLE
  2
APPID
  5
3
330
0
100
AcDbSymbolTable
 70
3
  0
APPID
  5
2A
330
3
100
AcDbSymbolTableRecord
100
AcDbRegAppTableRecord
  2
ACAD
 70
0
  0
APPID
  5
41
330
3
100
AcDbSymbolTableRecord
100
AcDbRegAppTableRecord
  2
HATCHBACKGROUNDCOLOR
 70
0
  0
APPID
  5
42
330
3
100
AcDbSymbolTableRecord
100
AcDbRegAppTableRecord
  2
EZDXF
 70
0
  0
ENDTAB
  0
TABLE
  2
DIMSTYLE
  5
4
330
0
100
AcDbSymbolTable
 70
1
100
AcDbDimStyleTable
  0
DIMSTYLE
105
2B
330
4
100
AcDbSymbolTableRecord
100
AcDbDimStyleTableRecord
  2
Standard
 70
0
 40
1.0
 41
2.5
 42
0.625
 43
3.75
 44
1.25
 45
0.0
 46
0.0
 47
0.0
 48
0.0
 49
2.5
140
2.5
141
2.5
142
0.0
143
0.03937007874
144
1.0
145
0.0
146
1.0
147
0.625
148
0.0
 69
0
 70
0
 71
0
 72
0
 73
0
 74
0
 75
0
 76
0
 77
1
 78
8
 79
3
170
0
171
3
172
1
173
0
174
0
175
0
176
0
177
0
178
0
179
2
271
2
272
2
273
2
274
3
275
0
276
0
277
2
278
44
279
0
280
0
281
0
282
0
283
0
284
8
285
0
286
0
288
0
289
3
290
0
371
-2
372
-2
  0
ENDTAB
  0
TABLE
  2
BLOCK_RECORD
  5
9
330
0
100
AcDbSymbolTable
 70
2
  0
BLOCK_RECORD
  5
17
330
9
100
AcDbSymbolTableRecord
100
AcDbBlockTableRecord
  2
*Model_Space
340
1A
 70
0
280
1
281
0
  0
BLOCK_RECORD
  5
1B
330
9
100
AcDbSymbolTableRecord
100
AcDbBlockTableRecord
  2
*Paper_Space
340
1E
 70
0
280
1
281
0
  0
ENDTAB
  0
ENDSEC
  0
SECTION
  2
BLOCKS
  0
BLOCK
  5
18
330
17
100
AcDbEntity
  8
0
100
AcDbBlockBegin
  2
*Model_Space
 70
0
 10
0.0
 20
0.0
 30
0.0
  3
*Model_Space
  1

  0
ENDBLK
  5
19
330
17
100
AcDbEntity
  8
0
100
AcDbBlockEnd
  0
BLOCK
  5
1C
330
1B
100
AcDbEntity
  8
0
100
AcDbBlockBegin
  2
*Paper_Space
 70
0
 10
0.0
 20
0.0
 30
0.0
  3
*Paper_Space
  1

  0
ENDBLK
  5
1D
330
1B
100
AcDbEntity
  8
0
100
AcDbBlockEnd
  0
ENDSEC
  0
SECTION
  2
ENTITIES
  0
LWPOLYLINE
  5
2F
330
17
100
AcDbEntity
  8
0
100
AcDbPolyline
 90
5
 70
1
 10
25.0
 20
25.0
 10
580.0
 20
25.0
 10
580.0
 20
195.0
 10
25.0
 20
195.0
 10
25.0
 20
25.0
  0
LWPOLYLINE
  5
30
330
17
100
AcDbEntity
  8
0
100
AcDbPolyline
 90
162
 70
1
 10
77.001953125
 20
102.802734375
 10
77.60687255859375
 20
102.81585693359375
 10
78.20092773437501
 20
102.85522460937501
 10
78.78411865234375
 20
102.92083740234375
 10
79.35644531250001
 20
103.01269531250003
 10
79.91790771484375
 20
103.13079833984375
 10
80.468505859375
 20
103.275146484375
 10
81.00823974609375
 20
103.44573974609375
 10
81.537109375
 20
103.642578125
 10
82.05511474609376
 20
103.86566162109376
 10
82.562255859375
 20
104.114990234375
 10
83.05853271484375
 20
104.39056396484375
 10
83.5439453125
 20
104.6923828125
 10
84.01849365234375
 20
105.02044677734375
 10
84.482177734375
 20
105.374755859375
 10
84.93499755859375
 20
105.75531005859375
 10
85.37695312500001
 20
106.162109375
 10
85.80804443359375
 20
106.59515380859375
 10
86.228271484375
 20
107.054443359375
 10
86.63763427734375
 20
107.53997802734376
 10
87.0361328125
 20
108.0517578125
 10
87.41937255859375
 20
108.58807373046875
 10
87.782958984375
 20
109.14721679687501
 10
88.12689208984375
 20
109.72918701171875
 10
88.45117187500003
 20
110.33398437500003
 10
88.75579833984375
 20
110.96160888671875
 10
89.040771484375
 20
111.612060546875
 10
89.30609130859375
 20
112.28533935546875
 10
89.5517578125
 20
112.9814453125
 10
89.77777099609376
 20
113.70037841796876
 10
89.984130859375
 20
114.442138671875
 10
90.17083740234375
 20
115.20672607421875
 10
90.337890625
 20
115.994140625
 10
90.48529052734375
 20
116.80438232421875
 10
90.613037109375
 20
117.637451171875
 10
90.72113037109375
 20
118.49334716796875
 10
90.8095703125
 20
119.3720703125
 10
90.87835693359374
 20
120.27362060546875
 10
90.927490234375
 20
121.197998046875
 10
90.95697021484375
 20
122.14520263671876
 10
90.966796875
 20
123.115234375
 10
90.9566650390625
 20
124.09356689453125
 10
90.92626953125
 20
125.04614257812501
 10
90.87561035156249
 20
125.97296142578124
 10
90.80468750000003
 20
126.87402343750003
 10
90.7135009765625
 20
127.74932861328125
 10
90.60205078125
 20
128.59887695312497
 10
90.4703369140625
 20
129.42266845703125
 10
90.318359375
 20
130.220703125
 10
90.14611816406251
 20
130.99298095703125
 10
89.95361328125
 20
131.739501953125
 10
89.7408447265625
 20
132.46026611328125
 10
89.5078125
 20
133.1552734375
 10
89.2545166015625
 20
133.82452392578125
 10
88.98095703125
 20
134.468017578125
 10
88.6871337890625
 20
135.08575439453125
 10
88.373046875
 20
135.677734375
 10
88.0386962890625
 20
136.24395751953125
 10
87.68408203125
 20
136.784423828125
 10
87.3092041015625
 20
137.29913330078125
 10
86.9140625
 20
137.7880859375
 10
86.5040283203125
 20
138.25225830078122
 10
86.08447265625
 20
138.69262695312503
 10
85.6553955078125
 20
139.10919189453125
 10
85.21679687500001
 20
139.501953125
 10
84.7686767578125
 20
139.87091064453125
 10
84.31103515625
 20
140.21606445312497
 10
83.8438720703125
 20
140.53741455078125
 10
83.3671875
 20
140.8349609375
 10
82.88098144531251
 20
141.10870361328125
 10
82.38525390625
 20
141.358642578125
 10
81.8800048828125
 20
141.58477783203125
 10
81.365234375
 20
141.787109375
 10
80.8409423828125
 20
141.96563720703125
 10
80.30712890625
 20
142.120361328125
 10
79.7637939453125
 20
142.25128173828125
 10
79.2109375
 20
142.3583984375
 10
78.6485595703125
 20
142.44171142578125
 10
78.07666015625
 20
142.501220703125
 10
77.4952392578125
 20
142.53692626953125
 10
76.904296875
 20
142.548828125
 10
76.24652099609375
 20
142.53613281249997
 10
75.60131835937501
 20
142.49804687500003
 10
74.96868896484375
 20
142.4345703125
 10
74.34863281250001
 20
142.345703125
 10
73.74114990234375
 20
142.2314453125
 10
73.146240234375
 20
142.09179687499997
 10
72.56390380859375
 20
141.9267578125
 10
71.994140625
 20
141.736328125
 10
71.43695068359376
 20
141.5205078125
 10
70.892333984375
 20
141.279296875
 10
70.36029052734375
 20
141.0126953125
 10
69.8408203125
 20
140.720703125
 10
69.33392333984375
 20
140.4033203125
 10
68.839599609375
 20
140.060546875
 10
68.35784912109375
 20
139.6923828125
 10
67.888671875
 20
139.298828125
 10
67.43206787109375
 20
138.8798828125
 10
66.988037109375
 20
138.435546875
 10
66.55657958984375
 20
137.9658203125
 10
66.1376953125
 20
137.470703125
 10
65.73541259765625
 20
136.95092773437497
 10
65.353759765625
 20
136.40722656250003
 10
64.99273681640625
 20
135.839599609375
 10
64.65234375000001
 20
135.248046875
 10
64.33258056640625
 20
134.632568359375
 10
64.033447265625
 20
133.99316406249997
 10
63.75494384765625
 20
133.329833984375
 10
63.4970703125
 20
132.642578125
 10
63.25982666015626
 20
131.931396484375
 10
63.043212890625
 20
131.1962890625
 10
62.84722900390625
 20
130.437255859375
 10
62.671875
 20
129.654296875
 10
62.51715087890625
 20
128.847412109375
 10
62.383056640625
 20
128.0166015625
 10
62.26959228515625
 20
127.161865234375
 10
62.1767578125
 20
126.283203125
 10
62.10455322265624
 20
125.380615234375
 10
62.052978515625
 20
124.4541015625
 10
62.02203369140626
 20
123.50366210937501
 10
62.01171875
 20
122.529296875
 10
62.0206298828125
 20
121.6962890625
 10
62.04736328125
 20
120.87695312500001
 10
62.09191894531249
 20
120.0712890625
 10
62.154296875000014
 20
119.27929687500003
 10
62.2344970703125
 20
118.5009765625
 10
62.33251953125
 20
117.73632812499999
 10
62.4483642578125
 20
116.9853515625
 10
62.58203125
 20
116.248046875
 10
62.73352050781251
 20
115.52441406250001
 10
62.90283203125
 20
114.814453125
 10
63.0899658203125
 20
114.1181640625
 10
63.294921875
 20
113.435546875
 10
63.5177001953125
 20
112.7666015625
 10
63.75830078125
 20
112.111328125
 10
64.0167236328125
 20
111.4697265625
 10
64.29296875
 20
110.841796875
 10
64.5870361328125
 20
110.2275390625
 10
64.89892578125
 20
109.626953125
 10
65.2286376953125
 20
109.04003906250001
 10
65.576171875
 20
108.466796875
 10
65.943359375
 20
107.91455078125
 10
66.33203125
 20
107.39062500000001
 10
66.7421875
 20
106.89501953125
 10
67.17382812500001
 20
106.42773437500003
 10
67.626953125
 20
105.98876953125
 10
68.1015625
 20
105.578125
 10
68.59765625
 20
105.19580078125
 10
69.115234375
 20
104.841796875
 10
69.654296875
 20
104.51611328125001
 10
70.21484375
 20
104.21875
 10
70.796875
 20
103.94970703125
 10
71.400390625
 20
103.708984375
 10
72.025390625
 20
103.49658203125
 10
72.671875
 20
103.3125
 10
73.33984375
 20
103.15673828125
 10
74.029296875
 20
103.029296875
 10
74.740234375
 20
102.93017578125
 10
75.47265625
 20
102.859375
 10
76.2265625
 20
102.81689453125001
 10
77.001953125
 20
102.802734375
 10
77.001953125
 20
102.802734375
  0
LWPOLYLINE
  5
31
330
17
100
AcDbEntity
  8
0
100
AcDbPolyline
 90
167
 70
1
 10
85.302734375
 20
147.67578125
 10
85.5386962890625
 20
147.52380371093747
 10
85.77783203125
 20
147.36083984375003
 10
86.0201416015625
 20
147.1868896484375
 10
86.26562500000001
 20
147.001953125
 10
86.5142822265625
 20
146.8060302734375
 10
86.76611328125
 20
146.59912109374997
 10
87.0211181640625
 20
146.3812255859375
 10
87.279296875
 20
146.15234375
 10
87.54064941406251
 20
145.9124755859375
 10
87.80517578125
 20
145.66162109375
 10
88.0728759765625
 20
145.3997802734375
 10
88.34375
 20
145.126953125
 10
88.6177978515625
 20
144.8431396484375
 10
88.89501953125
 20
144.54833984375
 10
89.1754150390625
 20
144.2425537109375
 10
89.458984375
 20
143.92578125
 10
89.74572753906249
 20
143.5980224609375
 10
90.03564453125
 20
143.25927734375
 10
90.3287353515625
 20
142.9095458984375
 10
90.625
 20
142.548828125
 10
90.625
 20
168.96484375
 10
99.072265625
 20
168.96484375
 10
99.072265625
 20
96.9921875
 10
91.162109375
 20
96.9921875
 10
91.162109375
 20
104.267578125
 10
90.8516845703125
 20
103.7908935546875
 10
90.53564453125
 20
103.32763671875001
 10
90.21398925781249
 20
102.8778076171875
 10
89.88671875000003
 20
102.44140625000003
 10
89.5538330078125
 20
102.0184326171875
 10
89.21533203125
 20
101.60888671875
 10
88.8712158203125
 20
101.2127685546875
 10
88.521484375
 20
100.83007812499999
 10
88.16613769531251
 20
100.46081542968751
 10
87.80517578125
 20
100.10498046875
 10
87.4385986328125
 20
99.7625732421875
 10
87.06640625
 20
99.43359375
 10
86.6885986328125
 20
99.1180419921875
 10
86.30517578125
 20
98.81591796875
 10
85.9161376953125
 20
98.5272216796875
 10
85.521484375
 20
98.251953125
 10
85.1212158203125
 20
97.9901123046875
 10
84.71533203125
 20
97.74169921875
 10
84.3038330078125
 20
97.50671386718751
 10
83.88671875
 20
97.28515625
 10
83.4637451171875
 20
97.07568359375
 10
83.03466796875
 20
96.87695312500001
 10
82.5994873046875
 20
96.68896484375
 10
82.15820312500001
 20
96.51171875000001
 10
81.7108154296875
 20
96.34521484375
 10
81.25732421875
 20
96.189453125
 10
80.7977294921875
 20
96.04443359375
 10
80.33203125
 20
95.91015624999999
 10
79.86022949218751
 20
95.78662109375001
 10
79.38232421875
 20
95.673828125
 10
78.8983154296875
 20
95.57177734375
 10
78.408203125
 20
95.48046875
 10
77.9119873046875
 20
95.39990234375
 10
77.40966796875
 20
95.330078125
 10
76.9012451171875
 20
95.27099609375
 10
76.38671875
 20
95.22265625
 10
75.8660888671875
 20
95.18505859375
 10
75.33935546875
 20
95.158203125
 10
74.8065185546875
 20
95.14208984375001
 10
74.267578125
 20
95.13671875
 10
73.3994140625
 20
95.15509033203125
 10
72.54296875000001
 20
95.21020507812501
 10
71.6982421875
 20
95.30206298828125
 10
70.86523437500001
 20
95.43066406250001
 10
70.0439453125
 20
95.59600830078125
 10
69.234375
 20
95.798095703125
 10
68.4365234375
 20
96.03692626953125
 10
67.650390625
 20
96.3125
 10
66.8759765625
 20
96.62481689453126
 10
66.11328125
 20
96.973876953125
 10
65.3623046875
 20
97.35968017578125
 10
64.623046875
 20
97.7822265625
 10
63.8955078125
 20
98.24151611328125
 10
63.1796875
 20
98.737548828125
 10
62.4755859375
 20
99.27032470703125
 10
61.783203125
 20
99.83984375
 10
61.10253906249999
 20
100.44610595703125
 10
60.43359375
 20
101.089111328125
 10
59.77636718750001
 20
101.76885986328126
 10
59.130859375
 20
102.4853515625
 10
58.5072021484375
 20
103.23236083984375
 10
57.91552734375
 20
104.00366210937501
 10
57.35583496093749
 20
104.79925537109375
 10
56.828125000000014
 20
105.61914062500003
 10
56.3323974609375
 20
106.46331787109375
 10
55.86865234375
 20
107.331787109375
 10
55.4368896484375
 20
108.22454833984375
 10
55.037109375
 20
109.1416015625
 10
54.66931152343751
 20
110.08294677734376
 10
54.33349609375
 20
111.048583984375
 10
54.0296630859375
 20
112.03851318359375
 10
53.7578125
 20
113.052734375
 10
53.5179443359375
 20
114.09124755859375
 10
53.31005859375
 20
115.154052734375
 10
53.1341552734375
 20
116.24114990234375
 10
52.990234375
 20
117.3525390625
 10
52.87829589843749
 20
118.48822021484375
 10
52.79833984375
 20
119.648193359375
 10
52.75036621093751
 20
120.83245849609376
 10
52.734375
 20
122.041015625
 10
52.74896240234375
 20
123.17596435546875
 10
52.792724609375
 20
124.29565429687501
 10
52.86566162109374
 20
125.40008544921874
 10
52.967773437500014
 20
126.48925781250003
 10
53.09906005859375
 20
127.56317138671875
 10
53.259521484375
 20
128.62182617187497
 10
53.44915771484375
 20
129.66522216796875
 10
53.66796875
 20
130.693359375
 10
53.91595458984376
 20
131.70623779296875
 10
54.193115234375
 20
132.703857421875
 10
54.49945068359375
 20
133.68621826171875
 10
54.8349609375
 20
134.6533203125
 10
55.19964599609375
 20
135.60516357421875
 10
55.593505859375
 20
136.541748046875
 10
56.01654052734375
 20
137.46307373046875
 10
56.46875
 20
138.369140625
 10
56.95013427734374
 20
139.25994873046875
 10
57.460693359375
 20
140.135498046875
 10
58.00042724609376
 20
140.99578857421875
 10
58.5693359375
 20
141.8408203125
 10
59.16534423828125
 20
142.65728759765622
 10
59.786376953125
 20
143.43188476562503
 10
60.43243408203124
 20
144.16461181640625
 10
61.103515625000014
 20
144.85546875
 10
61.79962158203125
 20
145.50445556640625
 10
62.520751953125
 20
146.11157226562497
 10
63.26690673828125
 20
146.67681884765625
 10
64.0380859375
 20
147.2001953125
 10
64.83428955078126
 20
147.68170166015625
 10
65.655517578125
 20
148.121337890625
 10
66.50177001953125
 20
148.51910400390625
 10
67.373046875
 20
148.875
 10
68.26934814453125
 20
149.18902587890625
 10
69.190673828125
 20
149.461181640625
 10
70.13702392578125
 20
149.69146728515625
 10
71.1083984375
 20
149.8798828125
 10
72.10479736328125
 20
150.02642822265625
 10
73.126220703125
 20
150.131103515625
 10
74.17266845703125
 20
150.19390869140625
 10
75.244140625
 20
150.21484375
 10
75.83984375
 20
150.20849609374997
 10
76.42578125000001
 20
150.18945312500003
 10
77.001953125
 20
150.15771484375
 10
77.56835937500001
 20
150.11328125
 10
78.125
 20
150.05615234375
 10
78.671875
 20
149.98632812499997
 10
79.208984375
 20
149.90380859375
 10
79.736328125
 20
149.80859375
 10
80.25390625000001
 20
149.70068359375
 10
80.76171875
 20
149.580078125
 10
81.259765625
 20
149.44677734375
 10
81.748046875
 20
149.30078125
 10
82.2265625
 20
149.14208984375
 10
82.6953125
 20
148.970703125
 10
83.154296875
 20
148.78662109375
 10
83.603515625
 20
148.58984375
 10
84.04296875
 20
148.38037109375
 10
84.47265625
 20
148.158203125
 10
84.892578125
 20
147.92333984375
 10
85.302734375
 20
147.67578125
 10
85.302734375
 20
147.67578125
  0
LWPOLYLINE
  5
32
330
17
100
AcDbEntity
  8
0
100
AcDbPolyline
 90
324
 70
1
 10
171.97265625
 20
141.083984375
 10
172.23193359375
 20
140.68518066406247
 10
172.482421875
 20
140.27978515625003
 10
172.72412109375
 20
139.8677978515625
 10
172.95703125000006
 20
139.44921875
 10
173.18115234375
 20
139.0240478515625
 10
173.396484375
 20
138.59228515624997
 10
173.60302734375
 20
138.1539306640625
 10
173.80078125
 20
137.708984375
 10
173.98974609375003
 20
137.2574462890625
 10
174.169921875
 20
136.79931640625
 10
174.34130859375
 20
136.3345947265625
 10
174.50390625
 20
135.86328125
 10
174.65771484375
 20
135.3853759765625
 10
174.802734375
 20
134.90087890625
 10
174.93896484375
 20
134.4097900390625
 10
175.06640625
 20
133.912109375
 10
175.18505859375
 20
133.4078369140625
 10
175.294921875
 20
132.89697265625
 10
175.39599609375
 20
132.37951660156253
 10
175.48828125
 20
131.85546875
 10
175.564453125
 20
131.4833984375
 10
175.63671875
 20
131.08984375000003
 10
175.705078125
 20
130.6748046875
 10
175.76953125000006
 20
130.23828125000003
 10
175.830078125
 20
129.7802734375
 10
175.88671875
 20
129.30078124999997
 10
175.939453125
 20
128.7998046875
 10
175.98828125
 20
128.27734375
 10
176.03320312500003
 20
127.73339843750001
 10
176.07421875
 20
127.16796875
 10
176.111328125
 20
126.5810546875
 10
176.14453125
 20
125.97265625
 10
176.173828125
 20
125.3427734375
 10
176.19921875
 20
124.69140625
 10
176.220703125
 20
124.0185546875
 10
176.23828125
 20
123.32421875
 10
176.251953125
 20
122.6083984375
 10
176.26171875
 20
121.87109375
 10
176.267578125
 20
121.11230468750001
 10
176.26953125
 20
120.33203125
 10
137.939453125
 20
120.33203125
 10
137.9720458984375
 20
119.54400634765625
 10
138.02099609375003
 20
118.77172851562501
 10
138.0863037109375
 20
118.01519775390625
 10
138.16796875000003
 20
117.27441406250003
 10
138.2659912109375
 20
116.54937744140625
 10
138.38037109375
 20
115.840087890625
 10
138.5111083984375
 20
115.14654541015625
 10
138.658203125
 20
114.46875
 10
138.8216552734375
 20
113.80670166015626
 10
139.00146484375
 20
113.160400390625
 10
139.1976318359375
 20
112.52984619140625
 10
139.41015625
 20
111.9150390625
 10
139.6390380859375
 20
111.31597900390625
 10
139.88427734375
 20
110.732666015625
 10
140.1458740234375
 20
110.16510009765625
 10
140.423828125
 20
109.61328125
 10
140.7181396484375
 20
109.07720947265625
 10
141.02880859375
 20
108.556884765625
 10
141.3558349609375
 20
108.05230712890626
 10
141.69921875
 20
107.5634765625
 10
142.0604248046875
 20
107.09454345703125
 10
142.44091796875003
 20
106.64965820312501
 10
142.8406982421875
 20
106.22882080078125
 10
143.25976562500003
 20
105.83203125000003
 10
143.6981201171875
 20
105.45928955078125
 10
144.15576171875
 20
105.110595703125
 10
144.6326904296875
 20
104.78594970703125
 10
145.12890625
 20
104.4853515625
 10
145.64440917968753
 20
104.20880126953126
 10
146.17919921875
 20
103.956298828125
 10
146.7332763671875
 20
103.72784423828125
 10
147.306640625
 20
103.5234375
 10
147.8992919921875
 20
103.34307861328125
 10
148.51123046875
 20
103.186767578125
 10
149.1424560546875
 20
103.05450439453125
 10
149.79296875
 20
102.9462890625
 10
150.4627685546875
 20
102.86212158203125
 10
151.15185546875
 20
102.802001953125
 10
151.8602294921875
 20
102.76593017578126
 10
152.587890625
 20
102.75390625
 10
153.2694091796875
 20
102.7652587890625
 10
153.93701171875003
 20
102.79931640625001
 10
154.5906982421875
 20
102.8560791015625
 10
155.23046875000003
 20
102.93554687500003
 10
155.8563232421875
 20
103.0377197265625
 10
156.46826171875
 20
103.16259765625
 10
157.0662841796875
 20
103.3101806640625
 10
157.650390625
 20
103.48046875
 10
158.22058105468753
 20
103.67346191406251
 10
158.77685546875
 20
103.88916015625
 10
159.3192138671875
 20
104.1275634765625
 10
159.84765625
 20
104.388671875
 10
160.3621826171875
 20
104.6724853515625
 10
160.86279296875
 20
104.97900390625
 10
161.3494873046875
 20
105.3082275390625
 10
161.822265625
 20
105.66015625
 10
162.2811279296875
 20
106.0347900390625
 10
162.72607421875
 20
106.43212890625
 10
163.1571044921875
 20
106.85217285156251
 10
163.57421875
 20
107.294921875
 10
163.80517578125
 20
107.5606689453125
 10
164.029296875
 20
107.83056640625001
 10
164.24658203125
 20
108.1046142578125
 10
164.45703125000003
 20
108.38281250000003
 10
164.66064453125
 20
108.6651611328125
 10
164.857421875
 20
108.95166015625
 10
165.04736328125
 20
109.2423095703125
 10
165.23046875
 20
109.537109375
 10
165.40673828125003
 20
109.83605957031251
 10
165.576171875
 20
110.13916015625
 10
165.73876953125
 20
110.4464111328125
 10
165.89453125
 20
110.7578125
 10
166.04345703125
 20
111.0733642578125
 10
166.185546875
 20
111.39306640625
 10
166.32080078125
 20
111.7169189453125
 10
166.44921875
 20
112.044921875
 10
166.57080078125
 20
112.3770751953125
 10
166.685546875
 20
112.71337890625
 10
166.79345703125
 20
113.05383300781251
 10
166.89453125
 20
113.3984375
 10
175.537109375
 20
113.3984375
 10
175.49896240234375
 20
113.10870361328125
 10
175.452880859375
 20
112.81567382812501
 10
175.39886474609375
 20
112.51934814453125
 10
175.33691406250006
 20
112.21972656250003
 10
175.26702880859375
 20
111.91680908203125
 10
175.189208984375
 20
111.610595703125
 10
175.10345458984375
 20
111.30108642578125
 10
175.009765625
 20
110.98828125
 10
174.90814208984378
 20
110.67218017578126
 10
174.798583984375
 20
110.352783203125
 10
174.68109130859375
 20
110.03009033203125
 10
174.5556640625
 20
109.7041015625
 10
174.42230224609375
 20
109.37481689453125
 10
174.281005859375
 20
109.042236328125
 10
174.13177490234375
 20
108.70635986328125
 10
173.974609375
 20
108.3671875
 10
173.80950927734375
 20
108.02471923828125
 10
173.636474609375
 20
107.678955078125
 10
173.45550537109375
 20
107.32989501953126
 10
173.2666015625
 20
106.9775390625
 10
173.07257080078125
 20
106.62677001953125
 10
172.876220703125
 20
106.28247070312501
 10
172.67755126953125
 20
105.94464111328125
 10
172.47656250000003
 20
105.61328125000003
 10
172.27325439453125
 20
105.28839111328125
 10
172.067626953125
 20
104.969970703125
 10
171.85968017578125
 20
104.65802001953125
 10
171.6494140625
 20
104.3525390625
 10
171.43682861328128
 20
104.05352783203126
 10
171.221923828125
 20
103.760986328125
 10
171.00469970703125
 20
103.47491455078125
 10
170.78515625
 20
103.1953125
 10
170.56329345703125
 20
102.92218017578125
 10
170.339111328125
 20
102.655517578125
 10
170.11260986328125
 20
102.39532470703125
 10
169.8837890625
 20
102.1416015625
 10
169.65264892578125
 20
101.89434814453125
 10
169.419189453125
 20
101.653564453125
 10
169.18341064453125
 20
101.41925048828126
 10
168.9453125
 20
101.19140625
 10
168.5401611328125
 20
100.80712890625
 10
168.12548828125
 20
100.43554687500001
 10
167.7012939453125
 20
100.07666015625
 10
167.26757812500003
 20
99.73046875000003
 10
166.8243408203125
 20
99.39697265625
 10
166.37158203125
 20
99.076171875
 10
165.9093017578125
 20
98.76806640625
 10
165.4375
 20
98.47265624999999
 10
164.95617675781253
 20
98.18994140625001
 10
164.46533203125
 20
97.919921875
 10
163.9649658203125
 20
97.66259765625
 10
163.455078125
 20
97.41796875
 10
162.9356689453125
 20
97.18603515625
 10
162.40673828125
 20
96.966796875
 10
161.8682861328125
 20
96.76025390625
 10
161.3203125
 20
96.56640625
 10
160.7628173828125
 20
96.38525390625
 10
160.19580078125
 20
96.216796875
 10
159.6192626953125
 20
96.06103515625001
 10
159.033203125
 20
95.91796875
 10
158.7137451171875
 20
95.841796875
 10
158.39013671875
 20
95.76953125000001
 10
158.0623779296875
 20
95.701171875
 10
157.73046875000003
 20
95.63671875000001
 10
157.3944091796875
 20
95.576171875
 10
157.05419921875
 20
95.51953125
 10
156.7098388671875
 20
95.466796875
 10
156.361328125
 20
95.41796874999999
 10
156.00866699218753
 20
95.37304687500001
 10
155.65185546875
 20
95.33203125
 10
155.2908935546875
 20
95.294921875
 10
154.92578125
 20
95.26171875
 10
154.5565185546875
 20
95.232421875
 10
154.18310546875
 20
95.20703125
 10
153.8055419921875
 20
95.185546875
 10
153.423828125
 20
95.16796875
 10
153.0379638671875
 20
95.154296875
 10
152.64794921875
 20
95.14453125
 10
152.2537841796875
 20
95.13867187500001
 10
151.85546875
 20
95.13671875
 10
150.8863525390625
 20
95.15447998046875
 10
149.93212890625003
 20
95.20776367187501
 10
148.9927978515625
 20
95.29656982421875
 10
148.06835937500003
 20
95.42089843750001
 10
147.1588134765625
 20
95.58074951171875
 10
146.26416015625
 20
95.776123046875
 10
145.3843994140625
 20
96.00701904296875
 10
144.51953125
 20
96.2734375
 10
143.66955566406253
 20
96.57537841796876
 10
142.83447265625
 20
96.912841796875
 10
142.0142822265625
 20
97.28582763671875
 10
141.208984375
 20
97.6943359375
 10
140.4185791015625
 20
98.13836669921875
 10
139.64306640625
 20
98.617919921875
 10
138.8824462890625
 20
99.13299560546875
 10
138.13671875
 20
99.68359375
 10
137.4058837890625
 20
100.26971435546875
 10
136.68994140625
 20
100.891357421875
 10
135.9888916015625
 20
101.54852294921876
 10
135.302734375
 20
102.2412109375
 10
134.6409912109375
 20
102.96588134765625
 10
134.01318359375003
 20
103.71899414062501
 10
133.4193115234375
 20
104.50054931640625
 10
132.85937500000003
 20
105.31054687500003
 10
132.3333740234375
 20
106.14898681640625
 10
131.84130859375
 20
107.015869140625
 10
131.3831787109375
 20
107.91119384765625
 10
130.958984375
 20
108.8349609375
 10
130.5687255859375
 20
109.78717041015626
 10
130.21240234375
 20
110.767822265625
 10
129.8900146484375
 20
111.77691650390625
 10
129.6015625
 20
112.814453125
 10
129.3470458984375
 20
113.88043212890625
 10
129.12646484375
 20
114.974853515625
 10
128.9398193359375
 20
116.09771728515625
 10
128.787109375
 20
117.2490234375
 10
128.6683349609375
 20
118.42877197265625
 10
128.58349609375
 20
119.636962890625
 10
128.5325927734375
 20
120.87359619140626
 10
128.515625
 20
122.138671875
 10
128.53271484375
 20
123.3865966796875
 10
128.583984375
 20
124.61083984375001
 10
128.66943359375
 20
125.81140136718749
 10
128.78906250000003
 20
126.98828125000003
 10
128.94287109375
 20
128.1414794921875
 10
129.130859375
 20
129.27099609374997
 10
129.35302734375
 20
130.3768310546875
 10
129.609375
 20
131.458984375
 10
129.89990234375003
 20
132.5174560546875
 10
130.224609375
 20
133.55224609375
 10
130.58349609375
 20
134.5633544921875
 10
130.9765625
 20
135.55078125
 10
131.40380859375
 20
136.5145263671875
 10
131.865234375
 20
137.45458984375
 10
132.36083984375
 20
138.3709716796875
 10
132.890625
 20
139.263671875
 10
133.45458984375
 20
140.1326904296875
 10
134.052734375
 20
140.97802734375
 10
134.68505859375
 20
141.7996826171875
 10
135.3515625
 20
142.59765625
 10
136.045654296875
 20
143.36413574218747
 10
136.76074218750003
 20
144.09130859375003
 10
137.496826171875
 20
144.7791748046875
 10
138.25390625000003
 20
145.427734375
 10
139.031982421875
 20
146.0369873046875
 10
139.8310546875
 20
146.60693359374997
 10
140.651123046875
 20
147.1375732421875
 10
141.4921875
 20
147.62890625
 10
142.35424804687503
 20
148.0809326171875
 10
143.2373046875
 20
148.49365234375
 10
144.141357421875
 20
148.8670654296875
 10
145.06640625
 20
149.201171875
 10
146.012451171875
 20
149.4959716796875
 10
146.9794921875
 20
149.75146484375
 10
147.967529296875
 20
149.9676513671875
 10
148.9765625
 20
150.14453125
 10
150.006591796875
 20
150.2821044921875
 10
151.0576171875
 20
150.38037109375
 10
152.129638671875
 20
150.4393310546875
 10
153.22265625
 20
150.458984375
 10
153.7784423828125
 20
150.45245361328122
 10
154.33251953125003
 20
150.43286132812503
 10
154.8848876953125
 20
150.40020751953125
 10
155.43554687500003
 20
150.3544921875
 10
155.9844970703125
 20
150.29571533203125
 10
156.53173828125
 20
150.22387695312497
 10
157.0772705078125
 20
150.13897705078125
 10
157.62109375
 20
150.041015625
 10
158.16320800781253
 20
149.92999267578125
 10
158.70361328125
 20
149.805908203125
 10
159.2423095703125
 20
149.66876220703125
 10
159.779296875
 20
149.5185546875
 10
160.3145751953125
 20
149.35528564453125
 10
160.84814453125
 20
149.178955078125
 10
161.3800048828125
 20
148.98956298828125
 10
161.91015625
 20
148.787109375
 10
162.4385986328125
 20
148.57159423828125
 10
162.96533203125
 20
148.343017578125
 10
163.4903564453125
 20
148.10137939453125
 10
164.013671875
 20
147.8466796875
 10
164.5299072265625
 20
147.58160400390622
 10
165.03369140625
 20
147.30883789062503
 10
165.5250244140625
 20
147.02838134765625
 10
166.00390625000003
 20
146.740234375
 10
166.4703369140625
 20
146.44439697265625
 10
166.92431640625
 20
146.14086914062497
 10
167.3658447265625
 20
145.82965087890625
 10
167.794921875
 20
145.5107421875
 10
168.21154785156253
 20
145.18414306640625
 10
168.61572265625
 20
144.849853515625
 10
169.0074462890625
 20
144.50787353515625
 10
169.38671875
 20
144.158203125
 10
169.7535400390625
 20
143.80084228515625
 10
170.10791015625
 20
143.435791015625
 10
170.4498291015625
 20
143.06304931640625
 10
170.779296875
 20
142.6826171875
 10
171.0963134765625
 20
142.29449462890625
 10
171.40087890625
 20
141.898681640625
 10
171.6929931640625
 20
141.49517822265625
 10
171.97265625
 20
141.083984375
 10
171.97265625
 20
141.083984375
  0
LWPOLYLINE
  5
33
330
17
100
AcDbEntity
  8
0
100
AcDbPolyline
 90
82
 70
1
 10
167.236328125
 20
127.314453125
 10
167.1790771484375
 20
127.8800048828125
 10
167.11474609375
 20
128.43408203125003
 10
167.0433349609375
 20
128.9766845703125
 10
166.96484375000003
 20
129.50781250000003
 10
166.8792724609375
 20
130.0274658203125
 10
166.78662109375
 20
130.53564453124997
 10
166.6868896484375
 20
131.0323486328125
 10
166.580078125
 20
131.517578125
 10
166.46618652343753
 20
131.9913330078125
 10
166.34521484375
 20
132.45361328125
 10
166.2171630859375
 20
132.9044189453125
 10
166.08203125
 20
133.34375
 10
165.9398193359375
 20
133.7716064453125
 10
165.79052734375
 20
134.18798828125
 10
165.6341552734375
 20
134.5928955078125
 10
165.470703125
 20
134.986328125
 10
165.3001708984375
 20
135.3682861328125
 10
165.12255859375
 20
135.73876953125
 10
164.9378662109375
 20
136.09777832031253
 10
164.74609375
 20
136.4453125
 10
164.3726806640625
 20
137.064208984375
 10
163.97509765625
 20
137.65136718750003
 10
163.5533447265625
 20
138.206787109375
 10
163.10742187500003
 20
138.73046875
 10
162.6373291015625
 20
139.222412109375
 10
162.14306640625
 20
139.68261718749997
 10
161.6246337890625
 20
140.111083984375
 10
161.08203125
 20
140.5078125
 10
160.51525878906253
 20
140.872802734375
 10
159.92431640625
 20
141.2060546875
 10
159.3092041015625
 20
141.507568359375
 10
158.669921875
 20
141.77734375
 10
158.0064697265625
 20
142.015380859375
 10
157.31884765625
 20
142.2216796875
 10
156.6070556640625
 20
142.396240234375
 10
155.87109375
 20
142.5390625
 10
155.1109619140625
 20
142.650146484375
 10
154.32666015625
 20
142.7294921875
 10
153.5181884765625
 20
142.777099609375
 10
152.685546875
 20
142.79296875
 10
152.0849609375
 20
142.78204345703122
 10
151.49414062500003
 20
142.74926757812503
 10
150.9130859375
 20
142.69464111328125
 10
150.34179687500003
 20
142.6181640625
 10
149.7802734375
 20
142.51983642578125
 10
149.228515625
 20
142.39965820312497
 10
148.6865234375
 20
142.25762939453125
 10
148.154296875
 20
142.09375
 10
147.63183593750003
 20
141.90802001953125
 10
147.119140625
 20
141.700439453125
 10
146.6162109375
 20
141.47100830078125
 10
146.123046875
 20
141.2197265625
 10
145.6396484375
 20
140.94659423828125
 10
145.166015625
 20
140.651611328125
 10
144.7021484375
 20
140.33477783203125
 10
144.248046875
 20
139.99609375
 10
143.8037109375
 20
139.63555908203125
 10
143.369140625
 20
139.253173828125
 10
142.9443359375
 20
138.84893798828125
 10
142.529296875
 20
138.4228515625
 10
142.1287841796875
 20
137.97991943359372
 10
141.74755859375003
 20
137.52514648437503
 10
141.3856201171875
 20
137.05853271484375
 10
141.04296875000003
 20
136.580078125
 10
140.7196044921875
 20
136.08978271484375
 10
140.41552734375
 20
135.58764648437497
 10
140.1307373046875
 20
135.07366943359375
 10
139.865234375
 20
134.5478515625
 10
139.6190185546875
 20
134.01019287109375
 10
139.39208984375
 20
133.460693359375
 10
139.1844482421875
 20
132.89935302734375
 10
138.99609375
 20
132.326171875
 10
138.8270263671875
 20
131.74114990234375
 10
138.67724609375
 20
131.144287109375
 10
138.5467529296875
 20
130.53558349609375
 10
138.435546875
 20
129.9150390625
 10
138.3436279296875
 20
129.28265380859375
 10
138.27099609375
 20
128.638427734375
 10
138.2176513671875
 20
127.98236083984376
 10
138.18359375
 20
127.314453125
 10
167.236328125
 20
127.314453125
  0
LWPOLYLINE
  5
34
330
17
100
AcDbEntity
  8
0
100
AcDbPolyline
 90
8
 70
1
 10
210.7421875
 20
149.287109375
 10
224.70703125
 20
106.708984375
 10
239.306640625
 20
149.287109375
 10
248.92578125
 20
149.287109375
 10
229.19921875
 20
96.9921875
 10
219.82421875
 20
96.9921875
 10
200.537109375
 20
149.287109375
 10
210.7421875
 20
149.287109375
  0
LWPOLYLINE
  5
35
330
17
100
AcDbEntity
  8
0
100
AcDbPolyline
 90
11
 70
1
 10
283.544921875
 20
168.720703125
 10
333.30078125
 20
168.720703125
 10
333.30078125
 20
159.931640625
 10
293.26171875
 20
159.931640625
 10
293.26171875
 20
138.154296875
 10
328.466796875
 20
138.154296875
 10
328.466796875
 20
129.609375
 10
293.26171875
 20
129.609375
 10
293.26171875
 20
96.9921875
 10
283.544921875
 20
96.9921875
 10
283.544921875
 20
168.720703125
  0
LWPOLYLINE
  5
36
330
17
100
AcDbEntity
  8
0
100
AcDbPolyline
 90
162
 70
1
 10
392.431640625
 20
123.994140625
 10
392.42578125
 20
124.7197265625
 10
392.408203125
 20
125.43164062500001
 10
392.37890624999994
 20
126.12988281249999
 10
392.3378906250001
 20
126.81445312500003
 10
392.28515625
 20
127.4853515625
 10
392.220703125
 20
128.14257812499997
 10
392.14453125
 20
128.7861328125
 10
392.056640625
 20
129.416015625
 10
391.95703125000006
 20
130.0322265625
 10
391.845703125
 20
130.634765625
 10
391.72265625
 20
131.2236328125
 10
391.587890625
 20
131.798828125
 10
391.44140625
 20
132.3603515625
 10
391.283203125
 20
132.908203125
 10
391.11328125
 20
133.4423828125
 10
390.931640625
 20
133.962890625
 10
390.73828124999994
 20
134.4697265625
 10
390.533203125
 20
134.962890625
 10
390.31640625000006
 20
135.4423828125
 10
390.087890625
 20
135.908203125
 10
389.703369140625
 20
136.61279296875
 10
389.2919921875
 20
137.28125000000003
 10
388.85375976562494
 20
137.91357421875
 10
388.3886718750001
 20
138.509765625
 10
387.896728515625
 20
139.06982421875
 10
387.3779296875
 20
139.59374999999997
 10
386.832275390625
 20
140.08154296875
 10
386.259765625
 20
140.533203125
 10
385.66040039062506
 20
140.94873046875
 10
385.0341796875
 20
141.328125
 10
384.381103515625
 20
141.67138671875
 10
383.701171875
 20
141.978515625
 10
382.994384765625
 20
142.24951171875
 10
382.2607421875
 20
142.484375
 10
381.500244140625
 20
142.68310546875
 10
380.712890625
 20
142.845703125
 10
379.89868164062494
 20
142.97216796875
 10
379.0576171875
 20
143.0625
 10
378.18969726562506
 20
143.11669921875
 10
377.294921875
 20
143.134765625
 10
376.500244140625
 20
143.11938476562497
 10
375.7275390625
 20
143.07324218750003
 10
374.97680664062494
 20
142.996337890625
 10
374.2480468750001
 20
142.888671875
 10
373.541259765625
 20
142.750244140625
 10
372.8564453125
 20
142.58105468749997
 10
372.193603515625
 20
142.381103515625
 10
371.552734375
 20
142.150390625
 10
370.93383789062506
 20
141.888916015625
 10
370.3369140625
 20
141.5966796875
 10
369.761962890625
 20
141.273681640625
 10
369.208984375
 20
140.919921875
 10
368.677978515625
 20
140.535400390625
 10
368.1689453125
 20
140.1201171875
 10
367.681884765625
 20
139.674072265625
 10
367.216796875
 20
139.197265625
 10
366.77368164062494
 20
138.689697265625
 10
366.3525390625
 20
138.1513671875
 10
365.953369140625
 20
137.58227539062503
 10
365.576171875
 20
136.982421875
 10
365.2191162109375
 20
136.36083984375
 10
364.88037109375
 20
135.72656250000003
 10
364.55993652343744
 20
135.07958984375
 10
364.2578125000001
 20
134.419921875
 10
363.9739990234375
 20
133.74755859375
 10
363.70849609375
 20
133.06249999999997
 10
363.4613037109375
 20
132.36474609375
 10
363.232421875
 20
131.654296875
 10
363.02185058593756
 20
130.93115234375
 10
362.82958984375
 20
130.1953125
 10
362.6556396484375
 20
129.44677734375
 10
362.5
 20
128.685546875
 10
362.3626708984375
 20
127.91162109375
 10
362.24365234375
 20
127.125
 10
362.1429443359375
 20
126.32568359375
 10
362.060546875
 20
125.513671875
 10
361.99645996093744
 20
124.68896484375
 10
361.95068359375
 20
123.8515625
 10
361.9232177734375
 20
123.00146484375001
 10
361.9140625
 20
122.138671875
 10
361.9232177734375
 20
121.3106689453125
 10
361.95068359375
 20
120.49658203125001
 10
361.99645996093744
 20
119.6964111328125
 10
362.0605468750001
 20
118.91015625000003
 10
362.1429443359375
 20
118.1378173828125
 10
362.24365234375
 20
117.37939453124999
 10
362.3626708984375
 20
116.6348876953125
 10
362.5
 20
115.904296875
 10
362.65563964843756
 20
115.18762207031251
 10
362.82958984375
 20
114.48486328125
 10
363.0218505859375
 20
113.7960205078125
 10
363.232421875
 20
113.12109375
 10
363.4613037109375
 20
112.4600830078125
 10
363.70849609375
 20
111.81298828125
 10
363.9739990234375
 20
111.1798095703125
 10
364.2578125
 20
110.560546875
 10
364.55993652343744
 20
109.9552001953125
 10
364.88037109375
 20
109.36376953125
 10
365.2191162109375
 20
108.78625488281251
 10
365.576171875
 20
108.22265625
 10
365.953125
 20
107.679931640625
 10
366.3515625
 20
107.16503906250001
 10
366.77148437499994
 20
106.677978515625
 10
367.2128906250001
 20
106.21875000000003
 10
367.67578125
 20
105.787353515625
 10
368.16015625
 20
105.3837890625
 10
368.666015625
 20
105.008056640625
 10
369.193359375
 20
104.66015625
 10
369.74218750000006
 20
104.34008789062501
 10
370.3125
 20
104.0478515625
 10
370.904296875
 20
103.783447265625
 10
371.517578125
 20
103.546875
 10
372.15234375
 20
103.338134765625
 10
372.80859375
 20
103.1572265625
 10
373.486328125
 20
103.004150390625
 10
374.185546875
 20
102.87890625
 10
374.90624999999994
 20
102.781494140625
 10
375.6484375
 20
102.7119140625
 10
376.412109375
 20
102.67016601562501
 10
377.197265625
 20
102.65625
 10
378.05755615234375
 20
102.67279052734375
 10
378.890380859375
 20
102.72241210937501
 10
379.6957397460937
 20
102.80511474609375
 10
380.4736328125001
 20
102.92089843750003
 10
381.22406005859375
 20
103.06976318359375
 10
381.947021484375
 20
103.251708984375
 10
382.64251708984375
 20
103.46673583984375
 10
383.310546875
 20
103.71484375
 10
383.9511108398438
 20
103.99603271484376
 10
384.564208984375
 20
104.310302734375
 10
385.14984130859375
 20
104.65765380859375
 10
385.7080078125
 20
105.0380859375
 10
386.23870849609375
 20
105.45159912109375
 10
386.741943359375
 20
105.898193359375
 10
387.21771240234375
 20
106.37786865234375
 10
387.666015625
 20
106.890625
 10
388.0868530273437
 20
107.43646240234375
 10
388.480224609375
 20
108.015380859375
 10
388.8461303710938
 20
108.62738037109376
 10
389.1845703125
 20
109.2724609375
 10
389.50115966796875
 20
109.93780517578125
 10
389.801513671875
 20
110.61059570312501
 10
390.0856323242187
 20
111.29083251953125
 10
390.3535156250001
 20
111.97851562500003
 10
390.60516357421875
 20
112.67364501953125
 10
390.840576171875
 20
113.376220703125
 10
391.05975341796875
 20
114.08624267578125
 10
391.2626953125
 20
114.8037109375
 10
391.4494018554688
 20
115.52862548828126
 10
391.619873046875
 20
116.260986328125
 10
391.77410888671875
 20
117.00079345703125
 10
391.912109375
 20
117.748046875
 10
392.03387451171875
 20
118.50274658203125
 10
392.139404296875
 20
119.264892578125
 10
392.22869873046875
 20
120.03448486328125
 10
392.3017578125
 20
120.8115234375
 10
392.3585815429687
 20
121.59600830078125
 10
392.399169921875
 20
122.387939453125
 10
392.4235229492188
 20
123.18731689453126
 10
392.431640625
 20
123.994140625
 10
392.431640625
 20
123.994140625
  0
LWPOLYLINE
  5
37
330
17
100
AcDbEntity
  8
0
100
AcDbPolyline
 90
162
 70
1
 10
401.611328125
 20
124.23828125
 10
401.595947265625
 20
122.984619140625
 10
401.5498046875
 20
121.75292968750001
 10
401.47290039062494
 20
120.543212890625
 10
401.3652343750001
 20
119.35546875000003
 10
401.226806640625
 20
118.189697265625
 10
401.0576171875
 20
117.04589843749999
 10
400.857666015625
 20
115.924072265625
 10
400.626953125
 20
114.82421875
 10
400.36547851562506
 20
113.74633789062501
 10
400.0732421875
 20
112.6904296875
 10
399.750244140625
 20
111.656494140625
 10
399.396484375
 20
110.64453125
 10
399.011962890625
 20
109.654541015625
 10
398.5966796875
 20
108.6865234375
 10
398.150634765625
 20
107.740478515625
 10
397.673828125
 20
106.81640625
 10
397.16625976562494
 20
105.914306640625
 10
396.6279296875
 20
105.0341796875
 10
396.05883789062506
 20
104.17602539062501
 10
395.458984375
 20
103.33984375
 10
394.8267822265625
 20
102.5352783203125
 10
394.16064453125
 20
101.77197265625001
 10
393.46057128906244
 20
101.0499267578125
 10
392.7265625000001
 20
100.36914062500003
 10
391.9586181640625
 20
99.7296142578125
 10
391.15673828125
 20
99.13134765625
 10
390.3209228515625
 20
98.5743408203125
 10
389.451171875
 20
98.05859374999999
 10
388.54748535156256
 20
97.58410644531251
 10
387.60986328125
 20
97.15087890625
 10
386.6383056640625
 20
96.7589111328125
 10
385.6328125
 20
96.408203125
 10
384.5933837890625
 20
96.0987548828125
 10
383.52001953125
 20
95.83056640625
 10
382.4127197265625
 20
95.6036376953125
 10
381.271484375
 20
95.41796875
 10
380.09631347656244
 20
95.2735595703125
 10
378.88720703125
 20
95.17041015625
 10
377.64416503906256
 20
95.10852050781251
 10
376.3671875
 20
95.087890625
 10
375.2991943359375
 20
95.10614013671875
 10
374.25341796875
 20
95.16088867187501
 10
373.22985839843744
 20
95.25213623046875
 10
372.2285156250001
 20
95.37988281250001
 10
371.2493896484375
 20
95.54412841796875
 10
370.29248046875
 20
95.744873046875
 10
369.3577880859375
 20
95.98211669921875
 10
368.4453125
 20
96.255859375
 10
367.55505371093756
 20
96.56610107421876
 10
366.68701171875
 20
96.912841796875
 10
365.8411865234375
 20
97.29608154296875
 10
365.017578125
 20
97.7158203125
 10
364.2161865234375
 20
98.17205810546875
 10
363.43701171875
 20
98.664794921875
 10
362.6800537109375
 20
99.19403076171875
 10
361.9453125
 20
99.759765625
 10
361.23278808593744
 20
100.36199951171875
 10
360.54248046875
 20
101.000732421875
 10
359.8743896484375
 20
101.67596435546876
 10
359.228515625
 20
102.3876953125
 10
358.609619140625
 20
103.13018798828125
 10
358.0224609375
 20
103.89770507812501
 10
357.46704101562494
 20
104.69024658203125
 10
356.9433593750001
 20
105.50781250000003
 10
356.451416015625
 20
106.35040283203125
 10
355.9912109375
 20
107.218017578125
 10
355.562744140625
 20
108.11065673828125
 10
355.166015625
 20
109.0283203125
 10
354.80102539062506
 20
109.97100830078126
 10
354.4677734375
 20
110.938720703125
 10
354.166259765625
 20
111.93145751953125
 10
353.896484375
 20
112.94921875
 10
353.658447265625
 20
113.99200439453125
 10
353.4521484375
 20
115.059814453125
 10
353.277587890625
 20
116.15264892578125
 10
353.134765625
 20
117.2705078125
 10
353.023681640625
 20
118.41339111328125
 10
352.9443359375
 20
119.581298828125
 10
352.896728515625
 20
120.77423095703126
 10
352.880859375
 20
121.9921875
 10
352.8975830078125
 20
123.297119140625
 10
352.94775390625
 20
124.57519531250001
 10
353.0313720703125
 20
125.82641601562499
 10
353.1484375000001
 20
127.05078125000003
 10
353.2989501953125
 20
128.248291015625
 10
353.48291015625
 20
129.41894531249997
 10
353.7003173828125
 20
130.562744140625
 10
353.951171875
 20
131.6796875
 10
354.23547363281256
 20
132.769775390625
 10
354.55322265625
 20
133.8330078125
 10
354.9044189453125
 20
134.869384765625
 10
355.2890625
 20
135.87890625
 10
355.7071533203125
 20
136.861572265625
 10
356.15869140625
 20
137.8173828125
 10
356.6436767578125
 20
138.746337890625
 10
357.162109375
 20
139.6484375
 10
357.71398925781244
 20
140.523681640625
 10
358.29931640625
 20
141.3720703125
 10
358.9180908203125
 20
142.193603515625
 10
359.5703125
 20
142.98828125
 10
360.250732421875
 20
143.74999999999997
 10
360.9541015625
 20
144.47265625000003
 10
361.68041992187494
 20
145.15625
 10
362.4296875000001
 20
145.80078125
 10
363.201904296875
 20
146.40625
 10
363.9970703125
 20
146.97265624999997
 10
364.815185546875
 20
147.5
 10
365.65625
 20
147.98828125
 10
366.52026367187506
 20
148.4375
 10
367.4072265625
 20
148.84765625
 10
368.317138671875
 20
149.21875
 10
369.25
 20
149.55078125
 10
370.205810546875
 20
149.84375
 10
371.1845703125
 20
150.09765625
 10
372.186279296875
 20
150.3125
 10
373.2109375
 20
150.48828125
 10
374.25854492187494
 20
150.625
 10
375.3291015625
 20
150.72265625
 10
376.422607421875
 20
150.78125
 10
377.5390625
 20
150.80078125
 10
378.5419921875
 20
150.78393554687497
 10
379.529296875
 20
150.73339843750003
 10
380.50097656249994
 20
150.649169921875
 10
381.4570312500001
 20
150.53125
 10
382.3974609375
 20
150.379638671875
 10
383.322265625
 20
150.19433593749997
 10
384.2314453125
 20
149.975341796875
 10
385.125
 20
149.72265625
 10
386.00292968750006
 20
149.436279296875
 10
386.865234375
 20
149.1162109375
 10
387.7119140625
 20
148.762451171875
 10
388.54296875
 20
148.375
 10
389.3583984375
 20
147.953857421875
 10
390.158203125
 20
147.4990234375
 10
390.9423828125
 20
147.010498046875
 10
391.7109375
 20
146.48828125
 10
392.46386718749994
 20
145.932373046875
 10
393.201171875
 20
145.3427734375
 10
393.92285156250006
 20
144.719482421875
 10
394.62890625
 20
144.0625
 10
395.3096923828125
 20
143.37280273437497
 10
395.95556640625
 20
142.65136718750003
 10
396.56652832031244
 20
141.898193359375
 10
397.1425781250001
 20
141.11328125
 10
397.6837158203125
 20
140.296630859375
 10
398.18994140625
 20
139.44824218749997
 10
398.6612548828125
 20
138.568115234375
 10
399.09765625
 20
137.65625
 10
399.49914550781256
 20
136.712646484375
 10
399.86572265625
 20
135.7373046875
 10
400.1973876953125
 20
134.730224609375
 10
400.494140625
 20
133.69140625
 10
400.7559814453125
 20
132.620849609375
 10
400.98291015625
 20
131.5185546875
 10
401.1749267578125
 20
130.384521484375
 10
401.33203125
 20
129.21875
 10
401.45422363281244
 20
128.021240234375
 10
401.54150390625
 20
126.7919921875
 10
401.59387207031256
 20
125.53100585937501
 10
401.611328125
 20
124.23828125
 10
401.611328125
 20
124.23828125
  0
LWPOLYLINE
  5
38
330
17
100
AcDbEntity
  8
0
100
AcDbPolyline
 90
164
 70
1
 10
447.55859375
 20
102.705078125
 10
448.021728515625
 20
102.71044921875
 10
448.4833984375
 20
102.72656250000001
 10
448.94360351562494
 20
102.75341796875
 10
449.4023437500001
 20
102.79101562500003
 10
449.859619140625
 20
102.83935546875
 10
450.3154296875
 20
102.8984375
 10
450.769775390625
 20
102.96826171875
 10
451.22265625
 20
103.048828125
 10
451.67407226562506
 20
103.14013671875001
 10
452.1240234375
 20
103.2421875
 10
452.572509765625
 20
103.35498046875
 10
453.01953125
 20
103.478515625
 10
453.465087890625
 20
103.61279296875
 10
453.9091796875
 20
103.7578125
 10
454.351806640625
 20
103.91357421875
 10
454.79296875
 20
104.080078125
 10
455.23266601562494
 20
104.25732421875
 10
455.6708984375
 20
104.4453125
 10
456.10766601562506
 20
104.64404296875001
 10
456.54296875
 20
104.853515625
 10
457.257080078125
 20
105.2213134765625
 10
457.9345703125
 20
105.61181640625001
 10
458.57543945312494
 20
106.0250244140625
 10
459.1796875000001
 20
106.46093750000003
 10
459.747314453125
 20
106.9195556640625
 10
460.2783203125
 20
107.40087890625
 10
460.772705078125
 20
107.9049072265625
 10
461.23046875
 20
108.431640625
 10
461.65161132812506
 20
108.98107910156251
 10
462.0361328125
 20
109.55322265625
 10
462.384033203125
 20
110.1480712890625
 10
462.6953125
 20
110.765625
 10
462.969970703125
 20
111.4058837890625
 10
463.2080078125
 20
112.06884765625
 10
463.409423828125
 20
112.7545166015625
 10
463.57421875
 20
113.462890625
 10
463.70239257812494
 20
114.1939697265625
 10
463.7939453125
 20
114.94775390625
 10
463.84887695312506
 20
115.72424316406251
 10
463.8671875
 20
116.5234375
 10
463.8671875
 20
123.603515625
 10
463.7037353515625
 20
123.5018310546875
 10
463.53564453125
 20
123.40185546875001
 10
463.36291503906244
 20
123.3035888671875
 10
463.1855468750001
 20
123.20703125000003
 10
463.0035400390625
 20
123.1121826171875
 10
462.81689453125
 20
123.01904296874999
 10
462.6256103515625
 20
122.9276123046875
 10
462.4296875
 20
122.837890625
 10
462.22912597656256
 20
122.74987792968751
 10
462.02392578125
 20
122.66357421875
 10
461.8140869140625
 20
122.5789794921875
 10
461.599609375
 20
122.49609375
 10
461.3804931640625
 20
122.4149169921875
 10
461.15673828125
 20
122.33544921875
 10
460.9283447265625
 20
122.2576904296875
 10
460.6953125
 20
122.181640625
 10
460.45764160156244
 20
122.1072998046875
 10
460.21533203125
 20
122.03466796875
 10
459.96838378906256
 20
121.96374511718751
 10
459.716796875
 20
121.89453125
 10
459.463134765625
 20
121.8271484375
 10
459.2099609375
 20
121.76171875000001
 10
458.95727539062494
 20
121.6982421875
 10
458.7050781250001
 20
121.63671875000003
 10
458.453369140625
 20
121.5771484375
 10
458.2021484375
 20
121.51953124999999
 10
457.951416015625
 20
121.4638671875
 10
457.701171875
 20
121.41015625
 10
457.45141601562506
 20
121.35839843750001
 10
457.2021484375
 20
121.30859375
 10
456.953369140625
 20
121.2607421875
 10
456.705078125
 20
121.21484375
 10
456.457275390625
 20
121.1708984375
 10
456.2099609375
 20
121.12890625
 10
455.963134765625
 20
121.0888671875
 10
455.716796875
 20
121.05078125
 10
455.47094726562494
 20
121.0146484375
 10
455.2255859375
 20
120.98046875
 10
454.98071289062506
 20
120.94824218750001
 10
454.736328125
 20
120.91796875
 10
449.4140625
 20
120.234375
 10
448.9415283203125
 20
120.1690673828125
 10
448.48095703125
 20
120.10009765625001
 10
448.03234863281244
 20
120.0274658203125
 10
447.5957031250001
 20
119.95117187500003
 10
447.1710205078125
 20
119.8712158203125
 10
446.75830078125
 20
119.78759765625
 10
446.3575439453125
 20
119.7003173828125
 10
445.96875
 20
119.609375
 10
445.59191894531256
 20
119.51477050781251
 10
445.22705078125
 20
119.41650390625
 10
444.8741455078125
 20
119.3145751953125
 10
444.533203125
 20
119.208984375
 10
444.2042236328125
 20
119.0997314453125
 10
443.88720703125
 20
118.98681640625
 10
443.5821533203125
 20
118.8702392578125
 10
443.2890625
 20
118.75
 10
443.00793457031244
 20
118.6260986328125
 10
442.73876953125
 20
118.49853515625
 10
442.48156738281256
 20
118.36730957031251
 10
442.236328125
 20
118.232421875
 10
441.8411865234375
 20
117.99609375
 10
441.46630859375
 20
117.74609375000001
 10
441.11169433593744
 20
117.482421875
 10
440.7773437500001
 20
117.20507812500003
 10
440.4632568359375
 20
116.9140625
 10
440.16943359375
 20
116.609375
 10
439.8958740234375
 20
116.291015625
 10
439.642578125
 20
115.958984375
 10
439.40954589843756
 20
115.61328125000001
 10
439.19677734375
 20
115.25390625
 10
439.0042724609375
 20
114.880859375
 10
438.83203125
 20
114.494140625
 10
438.6800537109375
 20
114.09375
 10
438.54833984375
 20
113.6796875
 10
438.4368896484375
 20
113.251953125
 10
438.345703125
 20
112.810546875
 10
438.27478027343744
 20
112.35546875
 10
438.22412109375
 20
111.88671875
 10
438.19372558593756
 20
111.40429687500001
 10
438.18359375
 20
110.908203125
 10
438.1905517578125
 20
110.5313720703125
 10
438.21142578125
 20
110.16259765625001
 10
438.24621582031244
 20
109.8018798828125
 10
438.2949218750001
 20
109.44921875000003
 10
438.3575439453125
 20
109.1046142578125
 10
438.43408203125
 20
108.76806640625
 10
438.5245361328125
 20
108.4395751953125
 10
438.62890625
 20
108.119140625
 10
438.74719238281256
 20
107.80676269531251
 10
438.87939453125
 20
107.50244140625
 10
439.0255126953125
 20
107.2061767578125
 10
439.185546875
 20
106.91796875
 10
439.3594970703125
 20
106.6378173828125
 10
439.54736328125
 20
106.36572265625
 10
439.7491455078125
 20
106.1016845703125
 10
439.96484375
 20
105.845703125
 10
440.19445800781244
 20
105.5977783203125
 10
440.43798828125
 20
105.35791015625
 10
440.69543457031256
 20
105.12609863281251
 10
440.966796875
 20
104.90234375
 10
441.2476806640625
 20
104.6881103515625
 10
441.53369140625
 20
104.48486328125001
 10
441.82482910156244
 20
104.2926025390625
 10
442.1210937500001
 20
104.11132812500003
 10
442.4224853515625
 20
103.9410400390625
 10
442.72900390625
 20
103.78173828125
 10
443.0406494140625
 20
103.6334228515625
 10
443.357421875
 20
103.49609375
 10
443.67932128906256
 20
103.36975097656251
 10
444.00634765625
 20
103.25439453125
 10
444.3385009765625
 20
103.1500244140625
 10
444.67578125
 20
103.056640625
 10
445.0181884765625
 20
102.9742431640625
 10
445.36572265625
 20
102.90283203125
 10
445.7183837890625
 20
102.8424072265625
 10
446.076171875
 20
102.79296875
 10
446.43908691406244
 20
102.7545166015625
 10
446.80712890625
 20
102.72705078125
 10
447.18029785156256
 20
102.71057128906251
 10
447.55859375
 20
102.705078125
 10
447.55859375
 20
102.705078125
  0
LWPOLYLINE
  5
39
330
17
100
AcDbEntity
  8
0
100
AcDbPolyline
 90
485
 70
1
 10
459.47265625
 20
128.681640625
 10
459.7703857421875
 20
128.72509765625
 10
460.05810546875
 20
128.77734375000003
 10
460.33581542968744
 20
128.83837890625
 10
460.6035156250001
 20
128.90820312500003
 10
460.8612060546875
 20
128.98681640625
 10
461.10888671875
 20
129.07421874999997
 10
461.3465576171875
 20
129.17041015625
 10
461.57421875
 20
129.275390625
 10
461.79187011718756
 20
129.38916015625
 10
461.99951171875
 20
129.51171875
 10
462.1971435546875
 20
129.64306640625
 10
462.384765625
 20
129.783203125
 10
462.5623779296875
 20
129.93212890625
 10
462.72998046875
 20
130.08984375
 10
462.8875732421875
 20
130.25634765625
 10
463.03515625
 20
130.431640625
 10
463.17272949218744
 20
130.61572265625
 10
463.30029296875
 20
130.80859375
 10
463.41784667968756
 20
131.01025390625
 10
463.525390625
 20
131.220703125
 10
463.58251953125
 20
131.3404541015625
 10
463.63671875
 20
131.46533203125003
 10
463.68798828124994
 20
131.5953369140625
 10
463.7363281250001
 20
131.73046875000003
 10
463.78173828125
 20
131.8707275390625
 10
463.82421875
 20
132.01611328124997
 10
463.86376953125
 20
132.1666259765625
 10
463.900390625
 20
132.322265625
 10
463.93408203125006
 20
132.4830322265625
 10
463.96484375
 20
132.64892578125
 10
463.99267578125
 20
132.8199462890625
 10
464.017578125
 20
132.99609375
 10
464.03955078125
 20
133.1773681640625
 10
464.05859375
 20
133.36376953125
 10
464.07470703125
 20
133.5552978515625
 10
464.087890625
 20
133.751953125
 10
464.09814453124994
 20
133.9537353515625
 10
464.10546875
 20
134.16064453125
 10
464.10986328125006
 20
134.3726806640625
 10
464.111328125
 20
134.58984375
 10
464.10333251953125
 20
135.03289794921875
 10
464.079345703125
 20
135.46362304687503
 10
464.0393676757812
 20
135.88201904296875
 10
463.9833984375001
 20
136.2880859375
 10
463.91143798828125
 20
136.68182373046875
 10
463.823486328125
 20
137.06323242187497
 10
463.71954345703125
 20
137.43231201171875
 10
463.599609375
 20
137.7890625
 10
463.4636840820313
 20
138.13348388671875
 10
463.311767578125
 20
138.465576171875
 10
463.14385986328125
 20
138.78533935546875
 10
462.9599609375
 20
139.0927734375
 10
462.76007080078125
 20
139.38787841796875
 10
462.544189453125
 20
139.670654296875
 10
462.31231689453125
 20
139.94110107421875
 10
462.064453125
 20
140.19921875
 10
461.8005981445312
 20
140.44500732421875
 10
461.520751953125
 20
140.678466796875
 10
461.2249145507813
 20
140.89959716796875
 10
460.9130859375
 20
141.1083984375
 10
460.58636474609375
 20
141.30596923828122
 10
460.245849609375
 20
141.49340820312503
 10
459.8915405273437
 20
141.67071533203125
 10
459.5234375000001
 20
141.837890625
 10
459.14154052734375
 20
141.99493408203125
 10
458.745849609375
 20
142.14184570312497
 10
458.33636474609375
 20
142.27862548828125
 10
457.9130859375
 20
142.4052734375
 10
457.4760131835938
 20
142.52178955078125
 10
457.025146484375
 20
142.628173828125
 10
456.56048583984375
 20
142.72442626953125
 10
456.08203125
 20
142.810546875
 10
455.58978271484375
 20
142.88653564453125
 10
455.083740234375
 20
142.952392578125
 10
454.56390380859375
 20
143.00811767578125
 10
454.0302734375
 20
143.0537109375
 10
453.4828491210937
 20
143.08917236328125
 10
452.921630859375
 20
143.114501953125
 10
452.3466186523438
 20
143.12969970703125
 10
451.7578125
 20
143.134765625
 10
451.079345703125
 20
143.12548828124997
 10
450.4208984375
 20
143.09765625000003
 10
449.78247070312494
 20
143.05126953125
 10
449.1640625000001
 20
142.986328125
 10
448.565673828125
 20
142.90283203125
 10
447.9873046875
 20
142.80078124999997
 10
447.428955078125
 20
142.68017578125
 10
446.890625
 20
142.541015625
 10
446.37231445312506
 20
142.38330078125
 10
445.8740234375
 20
142.20703125
 10
445.395751953125
 20
142.01220703125
 10
444.9375
 20
141.798828125
 10
444.499267578125
 20
141.56689453125
 10
444.0810546875
 20
141.31640625
 10
443.682861328125
 20
141.04736328125
 10
443.3046875
 20
140.759765625
 10
442.94653320312494
 20
140.45361328125
 10
442.6083984375
 20
140.12890625
 10
442.29028320312506
 20
139.78564453125
 10
441.9921875
 20
139.423828125
 10
441.8338623046875
 20
139.21374511718747
 10
441.68115234375
 20
138.99365234375003
 10
441.53405761718744
 20
138.7635498046875
 10
441.3925781250001
 20
138.5234375
 10
441.2567138671875
 20
138.2733154296875
 10
441.12646484375
 20
138.01318359374997
 10
441.0018310546875
 20
137.7430419921875
 10
440.8828125
 20
137.462890625
 10
440.76940917968756
 20
137.1727294921875
 10
440.66162109375
 20
136.87255859375
 10
440.5594482421875
 20
136.5623779296875
 10
440.462890625
 20
136.2421875
 10
440.3719482421875
 20
135.9119873046875
 10
440.28662109375
 20
135.57177734375
 10
440.2069091796875
 20
135.2215576171875
 10
440.1328125
 20
134.861328125
 10
440.06433105468744
 20
134.4910888671875
 10
440.00146484375
 20
134.11083984375
 10
439.94421386718756
 20
133.72058105468753
 10
439.892578125
 20
133.3203125
 10
431.689453125
 20
133.3203125
 10
431.72833251953125
 20
134.27239990234375
 10
431.796142578125
 20
135.19506835937503
 10
431.8928833007812
 20
136.08831787109375
 10
432.0185546875001
 20
136.9521484375
 10
432.17315673828125
 20
137.78656005859375
 10
432.356689453125
 20
138.59155273437497
 10
432.56915283203125
 20
139.36712646484375
 10
432.810546875
 20
140.11328125
 10
433.0808715820313
 20
140.83001708984375
 10
433.380126953125
 20
141.517333984375
 10
433.70831298828125
 20
142.17523193359375
 10
434.0654296875
 20
142.8037109375
 10
434.45147705078125
 20
143.40277099609375
 10
434.866455078125
 20
143.972412109375
 10
435.31036376953125
 20
144.51263427734375
 10
435.783203125
 20
145.0234375
 10
436.2849731445312
 20
145.50482177734375
 10
436.815673828125
 20
145.956787109375
 10
437.3753051757813
 20
146.37933349609375
 10
437.9638671875
 20
146.7724609375
 10
438.57171630859375
 20
147.14141845703122
 10
439.189208984375
 20
147.49145507812503
 10
439.8163452148437
 20
147.82257080078125
 10
440.4531250000001
 20
148.134765625
 10
441.09954833984375
 20
148.42803955078125
 10
441.755615234375
 20
148.70239257812497
 10
442.42132568359375
 20
148.95782470703125
 10
443.0966796875
 20
149.1943359375
 10
443.7816772460938
 20
149.41192626953125
 10
444.476318359375
 20
149.610595703125
 10
445.18060302734375
 20
149.79034423828125
 10
445.89453125
 20
149.951171875
 10
446.61810302734375
 20
150.09307861328125
 10
447.351318359375
 20
150.216064453125
 10
448.09417724609375
 20
150.32012939453125
 10
448.8466796875
 20
150.4052734375
 10
449.6088256835937
 20
150.47149658203125
 10
450.380615234375
 20
150.518798828125
 10
451.1620483398438
 20
150.54718017578125
 10
451.953125
 20
150.556640625
 10
452.8673095703125
 20
150.54785156249997
 10
453.76416015625
 20
150.52148437500003
 10
454.64367675781244
 20
150.4775390625
 10
455.5058593750001
 20
150.416015625
 10
456.3507080078125
 20
150.3369140625
 10
457.17822265625
 20
150.24023437499997
 10
457.9884033203125
 20
150.1259765625
 10
458.78125
 20
149.994140625
 10
459.55676269531256
 20
149.8447265625
 10
460.31494140625
 20
149.677734375
 10
461.0557861328125
 20
149.4931640625
 10
461.779296875
 20
149.291015625
 10
462.4854736328125
 20
149.0712890625
 10
463.17431640625
 20
148.833984375
 10
463.8458251953125
 20
148.5791015625
 10
464.5
 20
148.306640625
 10
465.13684082031244
 20
148.0166015625
 10
465.75634765625
 20
147.708984375
 10
466.35852050781256
 20
147.3837890625
 10
466.943359375
 20
147.041015625
 10
467.5003662109375
 20
146.67968749999997
 10
468.02880859375
 20
146.29882812500003
 10
468.52868652343744
 20
145.8984375
 10
469.0000000000001
 20
145.478515625
 10
469.4427490234375
 20
145.0390625
 10
469.85693359375
 20
144.58007812499997
 10
470.2425537109375
 20
144.1015625
 10
470.599609375
 20
143.603515625
 10
470.92810058593756
 20
143.0859375
 10
471.22802734375
 20
142.548828125
 10
471.4993896484375
 20
141.9921875
 10
471.7421875
 20
141.416015625
 10
471.9564208984375
 20
140.8203125
 10
472.14208984375
 20
140.205078125
 10
472.2991943359375
 20
139.5703125
 10
472.427734375
 20
138.916015625
 10
472.52770996093744
 20
138.2421875
 10
472.59912109375
 20
137.548828125
 10
472.64196777343756
 20
136.83593750000003
 10
472.65625
 20
136.103515625
 10
472.65625
 20
105.9765625
 10
472.65765380859375
 20
105.8411865234375
 10
472.661865234375
 20
105.70849609375001
 10
472.6688842773437
 20
105.5784912109375
 10
472.6787109375001
 20
105.45117187500003
 10
472.69134521484375
 20
105.3265380859375
 10
472.706787109375
 20
105.20458984375
 10
472.72503662109375
 20
105.0853271484375
 10
472.74609375
 20
104.96875
 10
472.7699584960938
 20
104.85485839843751
 10
472.796630859375
 20
104.74365234375
 10
472.82611083984375
 20
104.6351318359375
 10
472.8583984375
 20
104.529296875
 10
472.89349365234375
 20
104.4261474609375
 10
472.931396484375
 20
104.32568359375
 10
472.97210693359375
 20
104.2279052734375
 10
473.015625
 20
104.1328125
 10
473.0619506835937
 20
104.0404052734375
 10
473.111083984375
 20
103.95068359375
 10
473.1630249023438
 20
103.86364746093751
 10
473.2177734375
 20
103.779296875
 10
473.27703857421875
 20
103.6983642578125
 10
473.342529296875
 20
103.62158203125001
 10
473.4142456054687
 20
103.5489501953125
 10
473.4921875000001
 20
103.48046875000003
 10
473.57635498046875
 20
103.4161376953125
 10
473.666748046875
 20
103.35595703125
 10
473.76336669921875
 20
103.2999267578125
 10
473.8662109375
 20
103.248046875
 10
473.9752807617188
 20
103.20031738281251
 10
474.090576171875
 20
103.15673828125
 10
474.21209716796875
 20
103.1173095703125
 10
474.33984375
 20
103.08203125
 10
474.47381591796875
 20
103.0509033203125
 10
474.614013671875
 20
103.02392578125
 10
474.76043701171875
 20
103.0010986328125
 10
474.9130859375
 20
102.982421875
 10
475.0719604492187
 20
102.9678955078125
 10
475.237060546875
 20
102.95751953125
 10
475.4083862304688
 20
102.95129394531251
 10
475.5859375
 20
102.94921875
 10
475.6448974609375
 20
102.94940185546875
 10
475.70458984375
 20
102.94995117187501
 10
475.76501464843744
 20
102.95086669921875
 10
475.8261718750001
 20
102.95214843750003
 10
475.8880615234375
 20
102.95379638671875
 10
475.95068359375
 20
102.955810546875
 10
476.0140380859375
 20
102.95819091796875
 10
476.078125
 20
102.9609375
 10
476.14294433593756
 20
102.96405029296876
 10
476.20849609375
 20
102.967529296875
 10
476.2747802734375
 20
102.97137451171875
 10
476.341796875
 20
102.9755859375
 10
476.4095458984375
 20
102.98016357421875
 10
476.47802734375
 20
102.985107421875
 10
476.5472412109375
 20
102.99041748046875
 10
476.6171875
 20
102.99609375
 10
476.68786621093744
 20
103.00213623046875
 10
476.75927734375
 20
103.008544921875
 10
476.83142089843756
 20
103.01531982421876
 10
476.904296875
 20
103.0224609375
 10
476.977783203125
 20
103.02996826171875
 10
477.0517578125
 20
103.03784179687501
 10
477.12622070312494
 20
103.04608154296875
 10
477.2011718750001
 20
103.05468750000003
 10
477.276611328125
 20
103.06365966796875
 10
477.3525390625
 20
103.072998046875
 10
477.428955078125
 20
103.08270263671875
 10
477.505859375
 20
103.0927734375
 10
477.58325195312506
 20
103.10321044921876
 10
477.6611328125
 20
103.114013671875
 10
477.739501953125
 20
103.12518310546875
 10
477.818359375
 20
103.13671875
 10
477.897705078125
 20
103.14862060546875
 10
477.9775390625
 20
103.160888671875
 10
478.057861328125
 20
103.17352294921875
 10
478.138671875
 20
103.1865234375
 10
478.21997070312494
 20
103.19989013671875
 10
478.3017578125
 20
103.213623046875
 10
478.38403320312506
 20
103.22772216796876
 10
478.466796875
 20
103.2421875
 10
478.466796875
 20
96.748046875
 10
478.26416015625
 20
96.6905517578125
 10
478.06640625
 20
96.63525390625001
 10
477.87353515624994
 20
96.5821533203125
 10
477.6855468750001
 20
96.53125000000001
 10
477.50244140625
 20
96.4825439453125
 10
477.32421875
 20
96.43603515625
 10
477.15087890625
 20
96.3917236328125
 10
476.982421875
 20
96.34960937499999
 10
476.81884765625006
 20
96.30969238281251
 10
476.66015625
 20
96.27197265625
 10
476.50634765625
 20
96.2364501953125
 10
476.357421875
 20
96.203125
 10
476.21337890625
 20
96.1719970703125
 10
476.07421875
 20
96.14306640625
 10
475.93994140625
 20
96.1163330078125
 10
475.810546875
 20
96.091796875
 10
475.68603515624994
 20
96.0694580078125
 10
475.56640625
 20
96.04931640625
 10
475.45166015625006
 20
96.03137207031251
 10
475.341796875
 20
96.015625
 10
475.232421875
 20
96.0013427734375
 10
475.119140625
 20
95.98779296875001
 10
475.00195312499994
 20
95.9749755859375
 10
474.8808593750001
 20
95.96289062500001
 10
474.755859375
 20
95.9515380859375
 10
474.626953125
 20
95.94091796875
 10
474.494140625
 20
95.9310302734375
 10
474.357421875
 20
95.92187499999999
 10
474.21679687500006
 20
95.91345214843751
 10
474.072265625
 20
95.90576171875
 10
473.923828125
 20
95.8988037109375
 10
473.771484375
 20
95.892578125
 10
473.615234375
 20
95.8870849609375
 10
473.455078125
 20
95.88232421875
 10
473.291015625
 20
95.8782958984375
 10
473.123046875
 20
95.875
 10
472.95117187499994
 20
95.8724365234375
 10
472.775390625
 20
95.87060546875
 10
472.59570312500006
 20
95.86950683593751
 10
472.412109375
 20
95.869140625
 10
471.9642333984375
 20
95.877197265625
 10
471.52880859375
 20
95.90136718750001
 10
471.10583496093744
 20
95.941650390625
 10
470.6953125000001
 20
95.99804687500001
 10
470.2972412109375
 20
96.070556640625
 10
469.91162109375
 20
96.1591796875
 10
469.5384521484375
 20
96.263916015625
 10
469.177734375
 20
96.38476562499999
 10
468.82946777343756
 20
96.52172851562501
 10
468.49365234375
 20
96.6748046875
 10
468.1702880859375
 20
96.843994140625
 10
467.859375
 20
97.029296875
 10
467.5609130859375
 20
97.230712890625
 10
467.27490234375
 20
97.4482421875
 10
467.0013427734375
 20
97.681884765625
 10
466.740234375
 20
97.931640625
 10
466.49157714843744
 20
98.197509765625
 10
466.25537109375
 20
98.4794921875
 10
466.03161621093756
 20
98.77758789062501
 10
465.8203125
 20
99.091796875
 10
465.7144775390625
 20
99.2662353515625
 10
465.61181640625
 20
99.44775390625001
 10
465.51232910156244
 20
99.6363525390625
 10
465.4160156250001
 20
99.83203125000001
 10
465.3228759765625
 20
100.0347900390625
 10
465.23291015625
 20
100.24462890625
 10
465.1461181640625
 20
100.4615478515625
 10
465.0625
 20
100.685546875
 10
464.98205566406256
 20
100.91662597656251
 10
464.90478515625
 20
101.15478515625
 10
464.8306884765625
 20
101.4000244140625
 10
464.759765625
 20
101.65234375
 10
464.6920166015625
 20
101.9117431640625
 10
464.62744140625
 20
102.17822265625
 10
464.5660400390625
 20
102.4517822265625
 10
464.5078125
 20
102.732421875
 10
464.45275878906244
 20
103.0201416015625
 10
464.40087890625
 20
103.31494140625
 10
464.35217285156256
 20
103.61682128906251
 10
464.306640625
 20
103.92578125
 10
464.0322265625
 20
103.5765380859375
 10
463.74609375
 20
103.23193359375001
 10
463.44824218749994
 20
102.8919677734375
 10
463.1386718750001
 20
102.55664062500003
 10
462.8173828125
 20
102.2259521484375
 10
462.484375
 20
101.89990234375
 10
462.1396484375
 20
101.5784912109375
 10
461.783203125
 20
101.26171874999999
 10
461.41503906250006
 20
100.94958496093751
 10
461.03515625
 20
100.64208984375
 10
460.6435546875
 20
100.3392333984375
 10
460.240234375
 20
100.041015625
 10
459.8251953125
 20
99.7474365234375
 10
459.3984375
 20
99.45849609375
 10
458.9599609375
 20
99.1741943359375
 10
458.509765625
 20
98.89453125
 10
458.04785156249994
 20
98.6195068359375
 10
457.57421875
 20
98.34912109375
 10
457.08886718750006
 20
98.08337402343751
 10
456.591796875
 20
97.822265625
 10
456.0863037109375
 20
97.5699462890625
 10
455.57568359375
 20
97.33056640625001
 10
455.05993652343744
 20
97.1041259765625
 10
454.5390625000001
 20
96.89062500000001
 10
454.0130615234375
 20
96.6900634765625
 10
453.48193359375
 20
96.50244140625
 10
452.9456787109375
 20
96.3277587890625
 10
452.404296875
 20
96.16601562499999
 10
451.85778808593756
 20
96.01721191406251
 10
451.30615234375
 20
95.88134765625
 10
450.7493896484375
 20
95.7584228515625
 10
450.1875
 20
95.6484375
 10
449.6204833984375
 20
95.5513916015625
 10
449.04833984375
 20
95.46728515625
 10
448.4710693359375
 20
95.3961181640625
 10
447.888671875
 20
95.337890625
 10
447.30114746093744
 20
95.2926025390625
 10
446.70849609375
 20
95.26025390625
 10
446.11071777343756
 20
95.24084472656251
 10
445.5078125
 20
95.234375
 10
444.78692626953125
 20
95.24542236328125
 10
444.079345703125
 20
95.27856445312501
 10
443.3850708007812
 20
95.33380126953125
 10
442.7041015625001
 20
95.41113281250001
 10
442.03643798828125
 20
95.51055908203125
 10
441.382080078125
 20
95.632080078125
 10
440.74102783203125
 20
95.77569580078125
 10
440.11328125
 20
95.94140624999999
 10
439.4988403320313
 20
96.12921142578126
 10
438.897705078125
 20
96.339111328125
 10
438.30987548828125
 20
96.57110595703125
 10
437.7353515625
 20
96.8251953125
 10
437.17413330078125
 20
97.10137939453125
 10
436.626220703125
 20
97.399658203125
 10
436.09161376953125
 20
97.72003173828125
 10
435.5703125
 20
98.0625
 10
435.0623168945312
 20
98.42706298828125
 10
434.567626953125
 20
98.813720703125
 10
434.0862426757813
 20
99.22247314453126
 10
433.6181640625
 20
99.6533203125
 10
433.16827392578125
 20
100.10076904296875
 10
432.741455078125
 20
100.55932617187501
 10
432.3377075195312
 20
101.02899169921875
 10
431.9570312500001
 20
101.50976562500001
 10
431.59942626953125
 20
102.00164794921875
 10
431.264892578125
 20
102.504638671875
 10
430.95343017578125
 20
103.01873779296875
 10
430.6650390625
 20
103.5439453125
 10
430.3997192382813
 20
104.08026123046876
 10
430.157470703125
 20
104.627685546875
 10
429.93829345703125
 20
105.18621826171875
 10
429.7421875
 20
105.755859375
 10
429.56915283203125
 20
106.33660888671875
 10
429.419189453125
 20
106.928466796875
 10
429.29229736328125
 20
107.53143310546875
 10
429.1884765625
 20
108.1455078125
 10
429.1077270507812
 20
108.77069091796875
 10
429.050048828125
 20
109.406982421875
 10
429.0154418945313
 20
110.05438232421876
 10
429.00390625
 20
110.712890625
 10
429.0152587890625
 20
111.4322509765625
 10
429.04931640625
 20
112.13525390625001
 10
429.10607910156244
 20
112.8218994140625
 10
429.1855468750001
 20
113.49218750000003
 10
429.2877197265625
 20
114.1461181640625
 10
429.41259765625
 20
114.78369140625
 10
429.5601806640625
 20
115.4049072265625
 10
429.73046875
 20
116.009765625
 10
429.92346191406256
 20
116.59826660156251
 10
430.13916015625
 20
117.17041015625
 10
430.3775634765625
 20
117.7261962890625
 10
430.638671875
 20
118.265625
 10
430.9224853515625
 20
118.7886962890625
 10
431.22900390625
 20
119.29541015625
 10
431.5582275390625
 20
119.7857666015625
 10
431.91015625
 20
120.259765625
 10
432.28479003906244
 20
120.7174072265625
 10
432.68212890625
 20
121.15869140625
 10
433.10217285156256
 20
121.58361816406251
 10
433.544921875
 20
121.9921875
 10
434.006103515625
 20
122.3848876953125
 10
434.4814453125
 20
122.76220703125001
 10
434.97094726562494
 20
123.12414550781249
 10
435.4746093750001
 20
123.47070312500003
 10
435.992431640625
 20
123.8018798828125
 10
436.5244140625
 20
124.11767578124999
 10
437.070556640625
 20
124.41809082031249
 10
437.630859375
 20
124.703125
 10
438.20532226562506
 20
124.97277832031251
 10
438.7939453125
 20
125.22705078125
 10
439.396728515625
 20
125.4659423828125
 10
440.013671875
 20
125.689453125
 10
440.644775390625
 20
125.8975830078125
 10
441.2900390625
 20
126.09033203125
 10
441.949462890625
 20
126.2677001953125
 10
442.623046875
 20
126.4296875
 10
443.31079101562494
 20
126.57629394531249
 10
444.0126953125
 20
126.70751953125
 10
444.72875976562506
 20
126.82336425781251
 10
445.458984375
 20
126.923828125
 10
459.47265625
 20
128.681640625
  0
LWPOLYLINE
  5
3A
330
17
100
AcDbEntity
  8
0
100
AcDbPolyline
 90
332
 70
1
 10
506.4453125
 20
149.287109375
 10
515.13671875
 20
149.287109375
 10
515.13671875
 20
141.865234375
 10
515.44775390625
 20
142.24572753906247
 10
515.755859375
 20
142.61572265625003
 10
516.06103515625
 20
142.9752197265625
 10
516.3632812500001
 20
143.32421875
 10
516.66259765625
 20
143.6627197265625
 10
516.958984375
 20
143.99072265624997
 10
517.25244140625
 20
144.3082275390625
 10
517.54296875
 20
144.615234375
 10
517.83056640625
 20
144.9117431640625
 10
518.115234375
 20
145.19775390625
 10
518.39697265625
 20
145.4732666015625
 10
518.67578125
 20
145.73828125
 10
518.95166015625
 20
145.9927978515625
 10
519.224609375
 20
146.23681640625
 10
519.49462890625
 20
146.4703369140625
 10
519.76171875
 20
146.693359375
 10
520.02587890625
 20
146.9058837890625
 10
520.287109375
 20
147.10791015625
 10
520.54541015625
 20
147.2994384765625
 10
520.80078125
 20
147.48046875
 10
521.23828125
 20
147.77087402343747
 10
521.681640625
 20
148.04638671875003
 10
522.130859375
 20
148.3070068359375
 10
522.5859375000001
 20
148.552734375
 10
523.046875
 20
148.7835693359375
 10
523.513671875
 20
148.99951171874997
 10
523.986328125
 20
149.2005615234375
 10
524.46484375
 20
149.38671875
 10
524.94921875
 20
149.5579833984375
 10
525.439453125
 20
149.71435546875
 10
525.935546875
 20
149.8558349609375
 10
526.4375
 20
149.982421875
 10
526.9453125
 20
150.0941162109375
 10
527.458984375
 20
150.19091796875
 10
527.978515625
 20
150.2728271484375
 10
528.50390625
 20
150.33984375
 10
529.03515625
 20
150.3919677734375
 10
529.572265625
 20
150.42919921875
 10
530.115234375
 20
150.4515380859375
 10
530.6640625
 20
150.458984375
 10
531.282958984375
 20
150.45129394531247
 10
531.8896484375
 20
150.42822265625003
 10
532.484130859375
 20
150.3897705078125
 10
533.0664062500001
 20
150.3359375
 10
533.636474609375
 20
150.2667236328125
 10
534.1943359375
 20
150.18212890624997
 10
534.739990234375
 20
150.0821533203125
 10
535.2734375
 20
149.966796875
 10
535.794677734375
 20
149.8360595703125
 10
536.3037109375
 20
149.68994140625
 10
536.800537109375
 20
149.5284423828125
 10
537.28515625
 20
149.3515625
 10
537.757568359375
 20
149.1593017578125
 10
538.2177734375
 20
148.95166015625
 10
538.665771484375
 20
148.7286376953125
 10
539.1015625
 20
148.490234375
 10
539.525146484375
 20
148.2364501953125
 10
539.9365234375
 20
147.96728515625
 10
540.335693359375
 20
147.6827392578125
 10
540.72265625
 20
147.3828125
 10
540.9365234375
 20
147.20288085937497
 10
541.1484375000001
 20
147.01464843750003
 10
541.3583984375
 20
146.818115234375
 10
541.5664062500001
 20
146.61328125
 10
541.7724609375
 20
146.400146484375
 10
541.9765625
 20
146.17871093749997
 10
542.1787109375
 20
145.948974609375
 10
542.37890625
 20
145.7109375
 10
542.5771484375
 20
145.464599609375
 10
542.7734375
 20
145.2099609375
 10
542.9677734375
 20
144.947021484375
 10
543.16015625
 20
144.67578125
 10
543.3505859375
 20
144.396240234375
 10
543.5390625
 20
144.1083984375
 10
543.7255859375
 20
143.812255859375
 10
543.91015625
 20
143.5078125
 10
544.0927734375
 20
143.195068359375
 10
544.2734375
 20
142.8740234375
 10
544.4521484375
 20
142.544677734375
 10
544.62890625
 20
142.20703125
 10
544.9244384765625
 20
142.62152099609372
 10
545.2250976562501
 20
143.02514648437503
 10
545.5308837890625
 20
143.41790771484375
 10
545.8417968750001
 20
143.7998046875
 10
546.1578369140625
 20
144.17083740234375
 10
546.47900390625
 20
144.53100585937497
 10
546.8052978515625
 20
144.88031005859375
 10
547.13671875
 20
145.21875
 10
547.4732666015625
 20
145.54632568359375
 10
547.81494140625
 20
145.863037109375
 10
548.1617431640625
 20
146.16888427734375
 10
548.513671875
 20
146.4638671875
 10
548.8707275390625
 20
146.74798583984375
 10
549.23291015625
 20
147.021240234375
 10
549.6002197265625
 20
147.28363037109375
 10
549.97265625
 20
147.53515625
 10
550.3502197265625
 20
147.77581787109375
 10
550.73291015625
 20
148.005615234375
 10
551.1207275390625
 20
148.22454833984375
 10
551.513671875
 20
148.4326171875
 10
551.91162109375
 20
148.63018798828122
 10
552.3144531250001
 20
148.81762695312503
 10
552.72216796875
 20
148.99493408203125
 10
553.1347656250001
 20
149.162109375
 10
553.55224609375
 20
149.31915283203125
 10
553.974609375
 20
149.46606445312497
 10
554.40185546875
 20
149.60284423828125
 10
554.833984375
 20
149.7294921875
 10
555.27099609375
 20
149.84600830078125
 10
555.712890625
 20
149.952392578125
 10
556.15966796875
 20
150.04864501953125
 10
556.611328125
 20
150.134765625
 10
557.06787109375
 20
150.21075439453125
 10
557.529296875
 20
150.276611328125
 10
557.99560546875
 20
150.33233642578125
 10
558.466796875
 20
150.3779296875
 10
558.94287109375
 20
150.41339111328125
 10
559.423828125
 20
150.438720703125
 10
559.90966796875
 20
150.45391845703125
 10
560.400390625
 20
150.458984375
 10
561.438232421875
 20
150.43994140624997
 10
562.4423828125001
 20
150.38281250000003
 10
563.412841796875
 20
150.28759765625
 10
564.3496093750001
 20
150.154296875
 10
565.252685546875
 20
149.98291015625
 10
566.1220703125
 20
149.77343749999997
 10
566.957763671875
 20
149.52587890625
 10
567.759765625
 20
149.240234375
 10
568.5280761718751
 20
148.91650390625
 10
569.2626953125
 20
148.5546875
 10
569.963623046875
 20
148.15478515625
 10
570.630859375
 20
147.716796875
 10
571.264404296875
 20
147.24072265625
 10
571.8642578125
 20
146.7265625
 10
572.430419921875
 20
146.17431640625
 10
572.962890625
 20
145.583984375
 10
573.461669921875
 20
144.95556640625
 10
573.9267578125
 20
144.2890625
 10
574.358154296875
 20
143.58447265625
 10
574.755859375
 20
142.841796875
 10
574.955810546875
 20
142.42456054687497
 10
575.1455078125001
 20
141.99316406250003
 10
575.324951171875
 20
141.547607421875
 10
575.4941406250001
 20
141.087890625
 10
575.653076171875
 20
140.614013671875
 10
575.8017578125
 20
140.12597656249997
 10
575.940185546875
 20
139.623779296875
 10
576.068359375
 20
139.107421875
 10
576.1862792968751
 20
138.576904296875
 10
576.2939453125
 20
138.0322265625
 10
576.391357421875
 20
137.473388671875
 10
576.478515625
 20
136.900390625
 10
576.555419921875
 20
136.313232421875
 10
576.6220703125
 20
135.7119140625
 10
576.678466796875
 20
135.096435546875
 10
576.724609375
 20
134.466796875
 10
576.760498046875
 20
133.822998046875
 10
576.7861328125
 20
133.1650390625
 10
576.801513671875
 20
132.49291992187503
 10
576.806640625
 20
131.806640625
 10
576.806640625
 20
96.9921875
 10
567.67578125
 20
96.9921875
 10
567.67578125
 20
133.3203125
 10
567.6692504882812
 20
133.8345947265625
 10
567.6496582031251
 20
134.33251953125003
 10
567.6170043945312
 20
134.8140869140625
 10
567.5712890625001
 20
135.279296875
 10
567.5125122070312
 20
135.7281494140625
 10
567.440673828125
 20
136.16064453124997
 10
567.3557739257812
 20
136.5767822265625
 10
567.2578125
 20
136.9765625
 10
567.1467895507814
 20
137.3599853515625
 10
567.022705078125
 20
137.72705078125
 10
566.8855590820312
 20
138.0777587890625
 10
566.7353515625
 20
138.412109375
 10
566.5720825195312
 20
138.7301025390625
 10
566.395751953125
 20
139.03173828125
 10
566.2063598632812
 20
139.3170166015625
 10
566.00390625
 20
139.5859375
 10
565.7883911132812
 20
139.8385009765625
 10
565.559814453125
 20
140.07470703125
 10
565.3181762695312
 20
140.2945556640625
 10
565.0634765625
 20
140.498046875
 10
564.7993774414062
 20
140.68847656249997
 10
564.5295410156251
 20
140.86914062500003
 10
564.2539672851562
 20
141.0400390625
 10
563.9726562500001
 20
141.201171875
 10
563.6856079101562
 20
141.3525390625
 10
563.392822265625
 20
141.49414062499997
 10
563.0942993164062
 20
141.6259765625
 10
562.7900390625
 20
141.748046875
 10
562.4800415039064
 20
141.8603515625
 10
562.164306640625
 20
141.962890625
 10
561.8428344726562
 20
142.0556640625
 10
561.515625
 20
142.138671875
 10
561.1826782226562
 20
142.2119140625
 10
560.843994140625
 20
142.275390625
 10
560.4995727539062
 20
142.3291015625
 10
560.1494140625
 20
142.373046875
 10
559.7935180664062
 20
142.4072265625
 10
559.431884765625
 20
142.431640625
 10
559.0645141601562
 20
142.4462890625
 10
558.69140625
 20
142.451171875
 10
558.1774291992188
 20
142.44250488281247
 10
557.6706542968751
 20
142.41650390625003
 10
557.1710815429688
 20
142.3731689453125
 10
556.6787109375001
 20
142.3125
 10
556.1935424804688
 20
142.2344970703125
 10
555.715576171875
 20
142.13916015624997
 10
555.2448120117188
 20
142.0264892578125
 10
554.78125
 20
141.896484375
 10
554.3248901367188
 20
141.7491455078125
 10
553.875732421875
 20
141.58447265625
 10
553.4337768554688
 20
141.4024658203125
 10
552.9990234375
 20
141.203125
 10
552.5714721679688
 20
140.9864501953125
 10
552.151123046875
 20
140.75244140625
 10
551.7379760742188
 20
140.5010986328125
 10
551.33203125
 20
140.232421875
 10
550.9332885742188
 20
139.9464111328125
 10
550.541748046875
 20
139.64306640625
 10
550.1574096679688
 20
139.3223876953125
 10
549.7802734375
 20
138.984375
 10
549.4160766601562
 20
138.62609863281247
 10
549.0705566406251
 20
138.24462890625003
 10
548.7437133789062
 20
137.8399658203125
 10
548.4355468750001
 20
137.412109375
 10
548.1460571289062
 20
136.9610595703125
 10
547.875244140625
 20
136.48681640624997
 10
547.6231079101562
 20
135.9893798828125
 10
547.3896484375
 20
135.46875
 10
547.1748657226562
 20
134.9249267578125
 10
546.978759765625
 20
134.35791015625
 10
546.8013305664062
 20
133.7677001953125
 10
546.642578125
 20
133.154296875
 10
546.5025024414062
 20
132.5177001953125
 10
546.381103515625
 20
131.85791015625
 10
546.2783813476562
 20
131.1749267578125
 10
546.1943359375
 20
130.46875
 10
546.1289672851562
 20
129.7393798828125
 10
546.082275390625
 20
128.98681640625
 10
546.0542602539062
 20
128.21105957031253
 10
546.044921875
 20
127.412109375
 10
546.044921875
 20
96.9921875
 10
537.109375
 20
96.9921875
 10
537.109375
 20
131.123046875
 10
537.106201171875
 20
131.6480712890625
 10
537.0966796875001
 20
132.15869140625003
 10
537.080810546875
 20
132.6549072265625
 10
537.0585937500001
 20
133.13671875000003
 10
537.030029296875
 20
133.6041259765625
 10
536.9951171875
 20
134.05712890624997
 10
536.953857421875
 20
134.4957275390625
 10
536.90625
 20
134.919921875
 10
536.852294921875
 20
135.3297119140625
 10
536.7919921875
 20
135.72509765625
 10
536.725341796875
 20
136.1060791015625
 10
536.65234375
 20
136.47265625
 10
536.572998046875
 20
136.8248291015625
 10
536.4873046875
 20
137.16259765625
 10
536.395263671875
 20
137.4859619140625
 10
536.296875
 20
137.794921875
 10
536.192138671875
 20
138.0894775390625
 10
536.0810546875
 20
138.36962890625
 10
535.963623046875
 20
138.6353759765625
 10
535.83984375
 20
138.88671875
 10
535.6309814453125
 20
139.24377441406247
 10
535.4047851562501
 20
139.58251953125003
 10
535.1612548828125
 20
139.9029541015625
 10
534.9003906250001
 20
140.205078125
 10
534.6221923828125
 20
140.4888916015625
 10
534.32666015625
 20
140.75439453124997
 10
534.0137939453125
 20
141.0015869140625
 10
533.68359375
 20
141.23046875
 10
533.3360595703125
 20
141.4410400390625
 10
532.97119140625
 20
141.63330078125
 10
532.5889892578125
 20
141.8072509765625
 10
532.189453125
 20
141.962890625
 10
531.7725830078125
 20
142.1002197265625
 10
531.33837890625
 20
142.21923828125
 10
530.8868408203125
 20
142.3199462890625
 10
530.41796875
 20
142.40234375
 10
529.9317626953125
 20
142.4664306640625
 10
529.42822265625
 20
142.51220703125
 10
528.9073486328125
 20
142.5396728515625
 10
528.369140625
 20
142.548828125
 10
527.8733520507812
 20
142.53918457031247
 10
527.382080078125
 20
142.51025390625003
 10
526.8953247070312
 20
142.4620361328125
 10
526.4130859375001
 20
142.39453125
 10
525.9353637695312
 20
142.3077392578125
 10
525.462158203125
 20
142.20166015624997
 10
524.9934692382812
 20
142.0762939453125
 10
524.529296875
 20
141.931640625
 10
524.0696411132812
 20
141.7677001953125
 10
523.614501953125
 20
141.58447265625
 10
523.1638793945312
 20
141.3819580078125
 10
522.7177734375
 20
141.16015625
 10
522.2761840820312
 20
140.9190673828125
 10
521.839111328125
 20
140.65869140625
 10
521.4065551757812
 20
140.3790283203125
 10
520.978515625
 20
140.080078125
 10
520.5549926757812
 20
139.7618408203125
 10
520.135986328125
 20
139.42431640625
 10
519.7214965820312
 20
139.0675048828125
 10
519.3115234375
 20
138.69140625
 10
518.9140014648438
 20
138.29003906249997
 10
518.536865234375
 20
137.85742187500003
 10
518.1801147460938
 20
137.3935546875
 10
517.8437500000001
 20
136.8984375
 10
517.5277709960938
 20
136.3720703125
 10
517.232177734375
 20
135.81445312499997
 10
516.9569702148438
 20
135.2255859375
 10
516.7021484375
 20
134.60546875
 10
516.4677124023438
 20
133.9541015625
 10
516.253662109375
 20
133.271484375
 10
516.0599975585938
 20
132.5576171875
 10
515.88671875
 20
131.8125
 10
515.7338256835938
 20
131.0361328125
 10
515.601318359375
 20
130.228515625
 10
515.4891967773438
 20
129.3896484375
 10
515.3974609375
 20
128.51953125
 10
515.3261108398438
 20
127.61816406249999
 10
515.275146484375
 20
126.685546875
 10
515.2445678710938
 20
125.72167968750001
 10
515.234375
 20
124.7265625
 10
515.234375
 20
96.9921875
 10
506.4453125
 20
96.9921875
 10
506.4453125
 20
149.287109375
  0
LINE
  5
3B
330
17
100
AcDbEntity
  8
0
370
50
100
AcDbLine
 10
85.0
 20
92.0
 30
0.0
 11
160.0
 21
92.0
 31
0.0
  0
LINE
  5
3C
330
17
100
AcDbEntity
  8
0
370
50
100
AcDbLine
 10
160.0
 20
92.0
 30
0.0
 11
235.0
 21
92.0
 31
0.0
  0
LINE
  5
3D
330
17
100
AcDbEntity
  8
0
370
50
100
AcDbLine
 10
235.0
 20
92.0
 30
0.0
 11
310.0
 21
92.0
 31
0.0
  0
LINE
  5
3E
330
17
100
AcDbEntity
  8
0
370
50
100
AcDbLine
 10
310.0
 20
92.0
 30
0.0
 11
385.0
 21
92.0
 31
0.0
  0
LINE
  5
3F
330
17
100
AcDbEntity
  8
0
370
50
100
AcDbLine
 10
385.0
 20
92.0
 30
0.0
 11
460.0
 21
92.0
 31
0.0
  0
LINE
  5
40
330
17
100
AcDbEntity
  8
0
370
50
100
AcDbLine
 10
460.0
 20
92.0
 30
0.0
 11
535.0
 21
92.0
 31
0.0
  0
ENDSEC
  0
SECTION
  2
OBJECTS
  0
DICTIONARY
  5
A
330
0
100
AcDbDictionary
281
1
  3
ACAD_COLOR
350
B
  3
ACAD_GROUP
350
C
  3
ACAD_LAYOUT
350
D
  3
ACAD_MATERIAL
350
E
  3
ACAD_MLEADERSTYLE
350
F
  3
ACAD_MLINESTYLE
350
10
  3
ACAD_PLOTSETTINGS
350
11
  3
ACAD_PLOTSTYLENAME
350
12
  3
ACAD_SCALELIST
350
14
  3
ACAD_TABLESTYLE
350
15
  3
ACAD_VISUALSTYLE
350
16
  3
EZDXF_META
350
2D
  0
DICTIONARY
  5
B
330
A
100
AcDbDictionary
281
1
  0
DICTIONARY
  5
C
330
A
100
AcDbDictionary
281
1
  0
DICTIONARY
  5
D
330
A
100
AcDbDictionary
281
1
  3
Model
350
1A
  3
Layout1
350
1E
  0
DICTIONARY
  5
E
330
A
100
AcDbDictionary
281
1
  3
ByBlock
350
1F
  3
ByLayer
350
20
  3
Global
350
21
  0
DICTIONARY
  5
F
330
A
100
AcDbDictionary
281
1
  3
Standard
350
2C
  0
DICTIONARY
  5
10
330
A
100
AcDbDictionary
281
1
  3
Standard
350
22
  0
DICTIONARY
  5
11
330
A
100
AcDbDictionary
281
1
  0
ACDBDICTIONARYWDFLT
  5
12
330
A
100
AcDbDictionary
281
1
  3
Normal
350
13
100
AcDbDictionaryWithDefault
340
13
  0
ACDBPLACEHOLDER
  5
13
330
12
  0
DICTIONARY
  5
14
330
A
100
AcDbDictionary
281
1
  0
DICTIONARY
  5
15
330
A
100
AcDbDictionary
281
1
  0
DICTIONARY
  5
16
330
A
100
AcDbDictionary
281
1
  0
LAYOUT
  5
1A
330
D
100
AcDbPlotSettings
  1

  4
A3
  6

 40
7.5
 41
20.0
 42
7.5
 43
20.0
 44
420.0
 45
297.0
 46
0.0
 47
0.0
 48
0.0
 49
0.0
140
0.0
141
0.0
142
1.0
143
1.0
 70
1024
 72
1
 73
0
 74
5
  7

 75
16
 76
0
 77
2
 78
300
147
1.0
148
0.0
149
0.0
100
AcDbLayout
  1
Model
 70
1
 71
0
 10
0.0
 20
0.0
 11
420.0
 21
297.0
 12
0.0
 22
0.0
 32
0.0
 14
1e+20
 24
1e+20
 34
1e+20
 15
-1e+20
 25
-1e+20
 35
-1e+20
146
0.0
 13
0.0
 23
0.0
 33
0.0
 16
1.0
 26
0.0
 36
0.0
 17
0.0
 27
1.0
 37
0.0
 76
1
330
17
  0
LAYOUT
  5
1E
330
D
100
AcDbPlotSettings
  1

  4
A3
  6

 40
7.5
 41
20.0
 42
7.5
 43
20.0
 44
420.0
 45
297.0
 46
0.0
 47
0.0
 48
0.0
 49
0.0
140
0.0
141
0.0
142
1.0
143
1.0
 70
0
 72
1
 73
0
 74
5
  7

 75
16
 76
0
 77
2
 78
300
147
1.0
148
0.0
149
0.0
100
AcDbLayout
  1
Layout1
 70
1
 71
1
 10
0.0
 20
0.0
 11
420.0
 21
297.0
 12
0.0
 22
0.0
 32
0.0
 14
1e+20
 24
1e+20
 34
1e+20
 15
-1e+20
 25
-1e+20
 35
-1e+20
146
0.0
 13
0.0
 23
0.0
 33
0.0
 16
1.0
 26
0.0
 36
0.0
 17
0.0
 27
1.0
 37
0.0
 76
1
330
1B
  0
MATERIAL
  5
1F
102
{ACAD_REACTORS
330
E
102
}
330
E
100
AcDbMaterial
  1
ByBlock
  2

 70
0
 40
1.0
 71
1
 41
1.0
 91
-1023410177
 42
1.0
 72
1
  3

 73
1
 74
1
 75
1
 44
0.5
 73
0
 45
1.0
 46
1.0
 77
1
  4

 78
1
 79
1
170
1
 48
1.0
171
1
  6

172
1
173
1
174
1
140
1.0
141
1.0
175
1
  7

176
1
177
1
178
1
143
1.0
179
1
  8

270
1
271
1
272
1
145
1.0
146
1.0
273
1
  9

274
1
275
1
276
1
 42
1.0
 72
1
  3

 73
1
 74
1
 75
1
 94
63
  0
MATERIAL
  5
20
102
{ACAD_REACTORS
330
E
102
}
330
E
100
AcDbMaterial
  1
ByLayer
  2

 70
0
 40
1.0
 71
1
 41
1.0
 91
-1023410177
 42
1.0
 72
1
  3

 73
1
 74
1
 75
1
 44
0.5
 73
0
 45
1.0
 46
1.0
 77
1
  4

 78
1
 79
1
170
1
 48
1.0
171
1
  6

172
1
173
1
174
1
140
1.0
141
1.0
175
1
  7

176
1
177
1
178
1
143
1.0
179
1
  8

270
1
271
1
272
1
145
1.0
146
1.0
273
1
  9

274
1
275
1
276
1
 42
1.0
 72
1
  3

 73
1
 74
1
 75
1
 94
63
  0
MATERIAL
  5
21
102
{ACAD_REACTORS
330
E
102
}
330
E
100
AcDbMaterial
  1
Global
  2

 70
0
 40
1.0
 71
1
 41
1.0
 91
-1023410177
 42
1.0
 72
1
  3

 73
1
 74
1
 75
1
 44
0.5
 73
0
 45
1.0
 46
1.0
 77
1
  4

 78
1
 79
1
170
1
 48
1.0
171
1
  6

172
1
173
1
174
1
140
1.0
141
1.0
175
1
  7

176
1
177
1
178
1
143
1.0
179
1
  8

270
1
271
1
272
1
145
1.0
146
1.0
273
1
  9

274
1
275
1
276
1
 42
1.0
 72
1
  3

 73
1
 74
1
 75
1
 94
63
  0
MLINESTYLE
  5
22
102
{ACAD_REACTORS
330
10
102
}
330
10
100
AcDbMlineStyle
  2
Standard
 70
0
  3

 62
256
 51
90.0
 52
90.0
 71
2
 49
0.5
 62
256
  6
BYLAYER
 49
-0.5
 62
256
  6
BYLAYER
  0
MLEADERSTYLE
  5
2C
102
{ACAD_REACTORS
330
F
102
}
330
F
100
AcDbMLeaderStyle
179
2
170
2
171
1
172
0
 90
2
 40
0.0
 41
0.0
173
1
 91
-1056964608
 92
-2
290
1
 42
2.0
291
1
 43
8.0
  3
Standard
 44
4.0
300

342
29
174
1
175
1
176
0
178
1
 93
-1056964608
 45
4.0
292
0
297
0
 46
4.0
 94
-1056964608
 47
1.0
 49
1.0
140
1.0
294
1
141
0.0
177
0
142
1.0
295
0
296
0
143
3.75
271
0
272
9
273
9
  0
DICTIONARY
  5
2D
330
A
100
AcDbDictionary
280
1
281
1
  3
CREATED_BY_EZDXF
350
2E
  3
WRITTEN_BY_EZDXF
350
43
  0
DICTIONARYVAR
  5
2E
330
2D
100
DictionaryVariables
280
0
  1
1.4.3 @ 2025-11-18T05:18:57.883394+00:00
  0
DICTIONARYVAR
  5
43
330
2D
100
DictionaryVariables
280
0
  1
1.4.3 @ 2025-11-18T05:18:57.895195+00:00
  0
ENDSEC
  0
EOF
